<svg width="55" height="56" viewBox="0 0 55 56" fill="none" xmlns="http://www.w3.org/2000/svg">
<path d="M18.254 55.4438C13.2223 55.4438 8.20586 55.4438 3.17421 55.4438C2.07971 55.4438 1.8213 55.1856 1.8213 54.1074C1.8213 53.0595 1.8213 52.0268 1.8213 50.9789C1.8213 50.2348 2.15572 49.9159 2.90059 49.9007C3.28062 49.9007 3.66066 49.8855 4.04069 49.9007C4.45113 49.931 4.55754 49.7488 4.55754 49.3691C4.54234 47.3189 4.54234 45.2687 4.55754 43.2185C4.55754 42.8237 4.43593 42.6566 4.04069 42.687C3.63025 42.7174 3.20461 42.7022 2.79418 42.687C2.18612 42.6566 1.8517 42.3225 1.83649 41.715C1.82129 41.0468 1.80609 40.3786 1.83649 39.7256C1.8669 39.2092 1.71488 38.9814 1.16763 39.0422C0.878805 39.0726 0.605182 39.0422 0.361961 38.8448C-0.230892 38.374 -0.0788769 37.5235 0.696392 37.1439C2.09492 36.4605 3.50865 35.8074 4.90717 35.1392C9.07234 33.1649 13.2375 31.2059 17.3875 29.2164C17.9955 28.9279 18.5124 28.9279 19.1052 29.2164C24.5929 31.8437 30.0958 34.4406 35.5987 37.0375C35.9027 37.1894 36.222 37.3261 36.3892 37.6602C36.7236 38.3132 36.2828 39.0422 35.4923 39.0422C34.5498 39.0422 34.6714 39.1181 34.6714 39.8926C34.6714 40.5001 34.6866 41.1076 34.6714 41.715C34.6562 42.3225 34.3218 42.6566 33.7137 42.687C33.2729 42.7022 32.8473 42.7022 32.4064 42.687C32.1024 42.687 31.9504 42.7781 31.9504 43.1122C31.9504 45.2384 31.9504 47.3645 31.9504 49.4906C31.9504 49.8247 32.1176 49.9159 32.4064 49.9159C32.8473 49.9007 33.2729 49.9007 33.7137 49.9159C34.3218 49.9462 34.6714 50.2803 34.6714 50.8878C34.6866 52.0876 34.6866 53.2721 34.6714 54.4719C34.6562 55.1553 34.2914 55.459 33.5009 55.459C28.4085 55.4438 23.3312 55.4438 18.254 55.4438ZM13.2479 37.1141C14.3548 37.1136 15.2882 34.8635 15.5481 33.7876C15.8521 32.5575 16.8858 31.707 18.1171 31.6767C19.4701 31.6463 20.5342 32.3904 20.9142 33.6509C21.127 34.3495 21.0662 35.0329 20.747 35.7011C20.5397 36.1154 20.8612 37.1135 21.3245 37.1135C24.373 37.1135 27.3688 37.1135 30.3857 37.1135C30.6588 37.1135 30.7431 36.8843 30.4911 36.7794C26.6907 34.9722 22.8904 33.1801 19.09 31.3577C18.4972 31.0692 18.0259 31.0692 17.4331 31.3425C13.8608 33.0586 10.2732 34.7444 6.70093 36.4453C6.30301 36.6367 5.90509 36.8424 5.50717 37.0346C5.48654 37.0446 5.4804 37.0704 5.49062 37.0909C5.50076 37.1112 5.51849 37.1286 5.54121 37.1285C8.10727 37.1187 10.6734 37.1153 13.2479 37.1141ZM18.1932 40.7735C22.1911 40.7735 26.1891 40.7735 30.2022 40.7735C30.9015 40.7735 31.6008 40.7583 32.3 40.7735C32.6344 40.7735 32.8017 40.6672 32.7713 40.3179C32.7561 40.166 32.7713 40.0141 32.7713 39.8623C32.7713 39.027 32.7713 39.027 31.9352 39.027C22.8752 39.027 13.8 39.027 4.73995 39.027C3.61505 39.027 3.73667 38.9055 3.72147 40.0293C3.72147 40.7735 3.72147 40.7735 4.48153 40.7735C9.05714 40.7735 13.6327 40.7735 18.1932 40.7735ZM18.3148 51.799C14.3168 51.799 10.3189 51.799 6.3057 51.799C5.60643 51.799 4.90717 51.8142 4.2079 51.799C3.87347 51.799 3.70626 51.9053 3.73666 52.2546C3.75187 52.4065 3.73666 52.5583 3.73666 52.7102C3.73666 53.5455 3.73666 53.5455 4.57274 53.5455C13.6327 53.5455 22.708 53.5455 31.768 53.5455C32.8929 53.5455 32.7713 53.667 32.7865 52.5431C32.7865 51.799 32.7865 51.799 32.0264 51.799C27.4508 51.799 22.8752 51.799 18.3148 51.799ZM8.20587 46.3166C8.20587 45.4813 8.22107 44.6461 8.20587 43.8108C8.19067 42.5351 8.40348 42.7022 7.03536 42.6718C6.57932 42.6566 6.44251 42.8237 6.45771 43.2641C6.47291 45.0713 6.45771 46.8633 6.47291 48.6705C6.48811 50.0525 6.21449 49.8703 7.71942 49.8855C8.09946 49.8855 8.22106 49.7488 8.22106 49.3843C8.19066 48.3668 8.20587 47.3493 8.20587 46.3166ZM11.839 46.2862C11.839 45.451 11.839 44.6157 11.839 43.7804C11.8238 42.5351 12.0214 42.7174 10.6989 42.6718C10.2124 42.6566 10.0908 42.8389 10.0908 43.2945C10.106 45.1017 10.0908 46.8937 10.106 48.7009C10.1212 50.0373 9.86281 49.8551 11.3221 49.8855C11.7326 49.9007 11.8542 49.7336 11.839 49.3539C11.8238 48.3364 11.839 47.3189 11.839 46.2862ZM15.4873 46.2862C15.4873 45.451 15.4873 44.6157 15.4873 43.7804C15.4721 42.5351 15.6697 42.7174 14.3472 42.6718C13.8608 42.6566 13.7392 42.8389 13.7392 43.2945C13.7544 45.1017 13.7392 46.8937 13.7544 48.7009C13.7696 50.0373 13.5111 49.8551 14.9705 49.8855C15.3809 49.9007 15.5025 49.7336 15.4873 49.3539C15.4721 48.3364 15.4873 47.3189 15.4873 46.2862ZM19.1204 46.3166C19.1204 45.4813 19.1356 44.6461 19.1204 43.8108C19.1052 42.5351 19.3181 42.7174 17.9499 42.6718C17.4939 42.6566 17.3571 42.8237 17.3723 43.2641C17.3875 45.0713 17.3723 46.8633 17.3875 48.6705C17.4027 50.0525 17.1291 49.8703 18.634 49.8855C19.014 49.8855 19.1356 49.7488 19.1204 49.3843C19.1052 48.3668 19.1204 47.3493 19.1204 46.3166ZM22.7688 46.3318C22.7688 45.4813 22.7688 44.6309 22.7688 43.7652C22.7536 42.5351 22.936 42.7174 21.6743 42.6718C21.1118 42.6566 21.0054 42.8692 21.0206 43.3704C21.051 45.1472 21.0206 46.9393 21.0358 48.7161C21.051 50.0373 20.823 49.8551 22.2063 49.9007C22.6776 49.9159 22.784 49.7184 22.7688 49.2932C22.7536 48.3061 22.7688 47.3189 22.7688 46.3318ZM24.6689 46.2862C24.6689 47.1215 24.6689 47.9568 24.6689 48.792C24.6841 50.0373 24.4865 49.8551 25.809 49.9007C26.2955 49.9159 26.4171 49.7336 26.4171 49.278C26.4019 47.4708 26.4171 45.6788 26.4019 43.8716C26.3867 42.5351 26.6451 42.7174 25.1858 42.687C24.7753 42.6718 24.6537 42.8389 24.6689 43.2185C24.6841 44.236 24.6689 45.2687 24.6689 46.2862ZM28.3021 46.2255C28.3021 47.0759 28.3021 47.9416 28.3021 48.792C28.3173 50.0373 28.1196 49.8551 29.4422 49.9007C29.9286 49.9159 30.0502 49.7336 30.0502 49.278C30.035 47.4708 30.0502 45.6788 30.035 43.8716C30.0198 42.5351 30.2782 42.7174 28.8189 42.687C28.4085 42.6718 28.2869 42.8389 28.3021 43.2185C28.3173 44.2209 28.3021 45.2232 28.3021 46.2255ZM18.2236 35.2911C18.6492 35.3063 19.0748 34.8962 19.09 34.471C19.1052 34.0458 18.6948 33.6205 18.2692 33.6054C17.8435 33.5902 17.4179 34.0002 17.4027 34.4254C17.3875 34.8355 17.7979 35.2759 18.2236 35.2911Z" fill="#329CF1"/>
<path d="M35.6925 26.3831C31.5273 26.3831 27.3469 26.3831 23.1817 26.3831C21.2968 26.3831 20.1871 25.2744 20.1719 23.3761C20.1719 18.0759 20.1719 12.791 20.1719 7.49084C20.1719 5.54694 21.236 4.43831 23.1817 4.43831C23.6834 4.43831 23.8354 4.28645 23.8354 3.78529C23.8354 1.84139 24.9299 0.77832 26.8757 0.77832C35.1756 0.77832 43.4908 0.77832 51.7907 0.77832C53.7669 0.77832 54.8462 1.87176 54.8462 3.83084C54.8462 9.10062 54.8462 14.3856 54.8462 19.6554C54.8462 21.5993 53.7669 22.7079 51.8363 22.7079C51.3347 22.7079 51.1827 22.8598 51.1827 23.3609C51.1827 25.2896 50.0882 26.3679 48.1424 26.3679C43.9924 26.3831 39.8424 26.3831 35.6925 26.3831ZM35.7229 6.33665C31.6337 6.33665 27.5293 6.33665 23.4402 6.33665C22.3457 6.33665 22.072 6.6252 22.072 7.71864C22.072 12.8365 22.072 17.9696 22.072 23.0876C22.072 24.1962 22.3457 24.4695 23.4402 24.4695C31.5881 24.4695 39.736 24.4695 47.884 24.4695C49.0089 24.4695 49.2825 24.1962 49.2825 23.0572C49.2825 17.9545 49.2825 12.8517 49.2825 7.74901C49.2825 6.61001 49.0089 6.33665 47.884 6.33665C43.8404 6.33665 39.7816 6.33665 35.7229 6.33665ZM39.3408 2.69184C35.2668 2.69184 31.1929 2.69184 27.1189 2.69184C26.8757 2.69184 26.6324 2.67666 26.3892 2.75259C25.8876 2.93483 25.614 3.46637 25.7356 4.10421C25.842 4.65093 26.2828 4.40794 26.5716 4.40794C33.7923 4.42313 41.0129 4.42312 48.2488 4.42312C50.1034 4.42312 51.2283 5.54694 51.2283 7.38453C51.2283 11.3938 51.2283 15.3879 51.2283 19.3972C51.2283 19.7161 51.2435 20.0502 51.2283 20.3691C51.2131 20.7184 51.3803 20.8247 51.6995 20.8247C52.5964 20.8399 52.9612 20.4906 52.9612 19.5491C52.9612 14.3856 52.9612 9.22212 52.9612 4.05864C52.9612 2.95002 52.6724 2.67666 51.5931 2.67666C47.4887 2.69184 43.4148 2.69184 39.3408 2.69184Z" fill="#329CF1"/>
<path d="M0.152344 20.2479C0.152344 18.3495 0.152344 16.4512 0.152344 14.5529C0.152344 12.8823 1.30764 11.7281 2.97979 11.7281C5.45761 11.7281 7.95064 11.713 10.4285 11.7281C10.9149 11.7281 11.1277 11.6067 11.0821 11.0903C11.0517 10.7258 11.0821 10.3765 11.0821 10.012C11.0669 9.58682 11.2341 9.2679 11.6142 9.08566C12.0094 8.90342 12.3894 8.97935 12.7239 9.25271C13.7272 10.088 14.7304 10.9233 15.7489 11.7585C16.4938 12.3812 17.2387 12.9886 17.9683 13.6265C18.6372 14.2036 18.6372 14.7807 17.9683 15.3578C16.2506 16.8157 14.5024 18.2584 12.7695 19.7012C12.4198 19.9897 12.0398 20.1112 11.6142 19.8986C11.1733 19.7012 11.0669 19.3063 11.0821 18.8507C11.0973 18.471 11.0669 18.0914 11.0821 17.7117C11.0973 17.3624 10.9453 17.2409 10.6109 17.2561C9.13635 17.2713 7.64661 17.2713 6.17208 17.2561C5.73124 17.2561 5.70084 17.4839 5.70084 17.8332C5.70084 20.5212 5.70084 23.2245 5.70084 25.9125C5.70084 27.0363 5.45762 27.2793 4.33272 27.2793C3.35983 27.2793 2.40215 27.2793 1.42926 27.2793C0.425972 27.2793 0.167541 27.006 0.167541 25.9884C0.15234 24.0749 0.152344 22.1614 0.152344 20.2479ZM12.9671 16.4816C12.9949 16.6762 13.2098 16.7772 13.3613 16.6518C14.174 15.9794 14.9177 15.3573 15.6729 14.7351C15.8249 14.6136 15.901 14.4617 15.7185 14.3099C15.5585 14.1748 15.3991 14.0403 15.2396 13.9059C14.2745 13.0924 12.5116 13.6265 11.2493 13.6265C8.6195 13.6265 5.97446 13.6265 3.34463 13.6265C2.35654 13.6265 2.03732 13.9302 2.03732 14.9173C2.03732 18.1977 2.05251 21.478 2.02211 24.7583C2.02211 25.2747 2.18932 25.4114 2.67577 25.3962C3.93748 25.3506 3.77027 25.5177 3.77027 24.3027C3.77027 21.7058 3.77027 19.1089 3.77027 16.512C3.77027 15.6919 4.08949 15.3729 4.91037 15.3729C7.20577 15.3729 9.50118 15.3729 11.7966 15.3729C12.6327 15.3729 12.9367 15.6767 12.9671 16.4816Z" fill="#329CF1"/>
<path d="M53.0234 40.6135C53.0234 42.5118 53.0234 44.4101 53.0234 46.3085C53.0234 48.0094 51.8529 49.1636 50.1656 49.1636C47.7029 49.1636 45.2403 49.1788 42.7777 49.1484C42.2457 49.1484 42.048 49.3002 42.1088 49.8318C42.1392 50.1659 42.1088 50.5152 42.1088 50.8493C42.124 51.2593 41.972 51.5934 41.592 51.7909C41.1664 52.0035 40.7863 51.8972 40.4367 51.6086C39.4182 50.7582 38.3997 49.9077 37.3812 49.0573C36.6516 48.4498 35.9219 47.8575 35.2074 47.2197C34.569 46.6578 34.569 46.0807 35.2226 45.534C36.9556 44.0608 38.7037 42.6029 40.4519 41.145C40.8015 40.8564 41.1968 40.7653 41.6072 40.9779C42.0176 41.1906 42.1088 41.555 42.124 41.9803C42.1392 42.4814 41.896 43.1193 42.2305 43.4686C42.5801 43.833 43.2337 43.5901 43.7658 43.5901C44.8147 43.6204 45.8484 43.5749 46.8973 43.6052C47.3685 43.6204 47.5205 43.4686 47.5205 42.9978C47.5053 40.2794 47.5053 37.5761 47.5053 34.8577C47.5053 33.8554 47.7789 33.582 48.7974 33.582C49.7855 33.582 50.7736 33.582 51.7617 33.582C52.7954 33.582 53.0538 33.8554 53.0538 34.9033C53.0234 36.8168 53.0234 38.7151 53.0234 40.6135ZM38.0445 47.072C38.9333 47.8269 40.6082 47.25 41.7744 47.25C44.4346 47.25 47.0797 47.25 49.7399 47.25C50.8344 47.25 51.1232 46.9615 51.1232 45.8681C51.1232 42.7396 51.1232 39.6111 51.1232 36.4827C51.1232 35.3741 51.2449 35.5259 50.12 35.4652C49.5575 35.4348 49.3751 35.6019 49.3751 36.1941C49.4055 38.9277 49.3903 41.6613 49.3903 44.3949C49.3903 45.1543 49.0711 45.5036 48.3414 45.5036C45.97 45.5188 43.5986 45.5188 41.2272 45.5036C40.5583 45.5036 40.2391 45.1695 40.2087 44.4861C40.1775 44.2057 39.9268 44.1477 39.7105 44.3288C38.9746 44.9446 38.2387 45.5527 37.5028 46.1718C37.3356 46.3085 37.3204 46.4603 37.4876 46.597C37.6723 46.7552 37.8577 46.9133 38.0445 47.072Z" fill="#329CF1"/>
<path d="M28.4143 8.08292C29.0375 8.08292 29.6608 8.06773 30.2841 8.08292C31.789 8.11329 32.9595 9.26748 32.9899 10.7558C33.0051 11.4392 33.0051 12.1226 32.9899 12.806C32.9595 14.2639 31.789 15.4333 30.3297 15.4485C29.0527 15.4637 27.791 15.4637 26.5141 15.4485C24.994 15.4333 23.8387 14.2487 23.8083 12.73C23.7931 12.0922 23.7931 11.4392 23.8083 10.8013C23.8235 9.31304 24.994 8.12848 26.4685 8.09811C27.1374 8.06774 27.7758 8.08292 28.4143 8.08292ZM27.4566 11.8188C27.4566 11.3481 27.4566 10.8773 27.4566 10.3913C27.4566 10.2242 27.4566 10.0572 27.2438 9.98126C26.5293 9.73827 25.7693 10.2242 25.7237 10.9836C25.6932 11.4392 25.7085 11.8948 25.7237 12.3504C25.7389 13.2312 26.1797 13.6109 27.0614 13.5501C27.3502 13.5349 27.4718 13.4134 27.4566 13.1249C27.4566 12.6845 27.4566 12.2593 27.4566 11.8188ZM29.646 10.8032C29.968 10.8393 30.2961 10.8336 30.6185 10.8013C30.7553 10.7862 30.9529 10.8773 30.9985 10.6798C31.0441 10.528 30.9377 10.3913 30.8313 10.285C30.4665 9.9357 30.0104 9.95089 29.5544 10.0116C29.4024 10.0268 29.372 10.1635 29.3568 10.3154C29.324 10.6833 29.4631 10.7827 29.646 10.8032ZM30.2232 12.7149C30.0864 12.7149 29.9648 12.73 29.828 12.7149C29.4936 12.6845 29.3416 12.806 29.3568 13.1705C29.3568 13.5198 29.5696 13.5653 29.8432 13.5501C30.0408 13.5349 30.2537 13.5198 30.4513 13.4742C30.7401 13.3983 31.0289 13.216 30.9985 12.9123C30.9762 12.6448 30.7738 12.7045 30.5896 12.7312C30.4675 12.7489 30.3466 12.7149 30.2232 12.7149Z" fill="#329CF1"/>
<path d="M34.7538 11.7125C34.7538 11.3936 34.7386 11.0747 34.7538 10.7557C34.7994 10.2394 35.1947 9.90527 35.7115 9.90527C36.198 9.92046 36.6084 10.2394 36.6236 10.7254C36.654 11.4088 36.654 12.0922 36.6236 12.7604C36.5932 13.2767 36.1828 13.6108 35.6659 13.6108C35.1643 13.5956 34.7842 13.2615 34.7386 12.73C34.7234 12.3959 34.7538 12.0466 34.7538 11.7125Z" fill="#329CF1"/>
<path d="M40.2697 11.7737C40.2697 12.0774 40.2849 12.3811 40.2697 12.6849C40.2393 13.2468 39.8745 13.6113 39.3424 13.6264C38.8104 13.6264 38.4151 13.2772 38.3847 12.7152C38.3543 12.0926 38.3695 11.4699 38.3847 10.8473C38.3999 10.2854 38.78 9.9209 39.312 9.9209C39.8441 9.9209 40.2393 10.2702 40.2697 10.8321C40.2849 11.1358 40.2697 11.4548 40.2697 11.7737Z" fill="#329CF1"/>
<path d="M43.9182 11.7737C43.9182 12.0774 43.9334 12.3811 43.9182 12.6849C43.8878 13.2468 43.5229 13.6113 42.9909 13.6264C42.4588 13.6264 42.0636 13.2772 42.0332 12.7152C42.0028 12.0926 42.018 11.4699 42.0332 10.8473C42.0484 10.2854 42.4284 9.9209 42.9605 9.9209C43.4925 9.9209 43.8878 10.2702 43.9182 10.8321C43.9334 11.1358 43.9182 11.4548 43.9182 11.7737Z" fill="#329CF1"/>
<path d="M45.6636 11.7429C45.6636 11.4239 45.6484 11.105 45.6636 10.7861C45.7092 10.2546 46.0741 9.92046 46.5909 9.90527C47.1078 9.90527 47.5182 10.2394 47.5334 10.7557C47.5638 11.4088 47.5638 12.077 47.5334 12.7452C47.5182 13.2767 47.123 13.6108 46.6061 13.626C46.0741 13.626 45.694 13.2767 45.6484 12.7148C45.6484 12.3807 45.6636 12.0618 45.6636 11.7429Z" fill="#329CF1"/>
<path d="M43.8863 20.9005C43.5519 20.9005 43.2023 20.9309 42.8678 20.9005C42.351 20.8549 42.0165 20.4449 42.0317 19.9437C42.0469 19.4578 42.3662 19.0629 42.8678 19.0325C43.5519 19.0022 44.2207 19.0022 44.9048 19.0325C45.4217 19.0629 45.7561 19.473 45.7409 19.9893C45.7257 20.4753 45.4065 20.8549 44.9048 20.9005C44.5704 20.9309 44.2207 20.9005 43.8863 20.9005Z" fill="#329CF1"/>
<path d="M27.8394 20.9211C27.5353 20.9211 27.2313 20.9363 26.9273 20.9211C26.3648 20.8907 26 20.5111 26 19.9795C26 19.448 26.3496 19.0532 26.9121 19.0228C27.5505 18.9924 28.189 18.9924 28.8427 19.0228C29.3747 19.0532 29.7091 19.4328 29.7091 19.9492C29.7091 20.4655 29.3747 20.8604 28.8579 20.8907C28.5234 20.9515 28.189 20.9211 27.8394 20.9211Z" fill="#329CF1"/>
<path d="M38.4137 20.901C38.0792 20.901 37.7296 20.9314 37.3952 20.901C36.8783 20.8555 36.5439 20.4454 36.5591 19.9291C36.5743 19.4431 36.8935 19.0483 37.3952 19.0179C38.0792 18.9875 38.7481 18.9875 39.4322 19.0179C39.949 19.0483 40.2834 19.4735 40.2682 19.9747C40.253 20.4606 39.9186 20.8403 39.4322 20.8859C39.0977 20.9314 38.7633 20.901 38.4137 20.901Z" fill="#329CF1"/>
<path d="M32.9002 19.0067C33.2042 19.0067 33.5082 18.9916 33.8122 19.0067C34.3595 19.0371 34.7243 19.432 34.7243 19.9635C34.7243 20.4799 34.3747 20.8595 33.8426 20.8899C33.2042 20.9203 32.5657 20.9203 31.9121 20.8899C31.3496 20.8747 31 20.4647 31 19.9331C31 19.4016 31.3648 19.0371 31.9425 19.0067C32.2617 18.9916 32.5809 19.0067 32.9002 19.0067Z" fill="#329CF1"/>
</svg>
