<svg width="80" height="90" viewBox="0 0 80 90" fill="none" xmlns="http://www.w3.org/2000/svg">
<g clip-path="url(#clip0_98_13352)">
<path d="M41.5054 90.0037C35.0714 88.4845 28.7614 86.5101 22.3922 84.7559C20.5325 84.2433 18.819 84.308 17.1703 85.3443C16.8514 85.5518 16.516 85.7325 16.1673 85.8846C15.3032 86.2547 14.7351 86.7044 14.785 87.8183C14.8295 88.7565 14.0541 89.319 12.9642 89.2987C10.4495 89.258 7.9347 89.1618 5.41995 89.0896C4.25047 89.0544 3.08099 89.0248 1.90411 88.9841C0.571788 88.9397 -0.0370058 88.3439 -0.00554827 87.0189C0.178262 79.4432 0.371323 71.8688 0.573638 64.2955C0.595844 63.5054 0.653209 62.7189 0.688368 61.9288C0.74018 60.7649 1.32307 60.1191 2.5055 60.1339C5.13868 60.1709 7.77001 60.2782 10.4013 60.3559C11.4542 60.3874 12.5053 60.4133 13.5582 60.4429C14.9386 60.4836 15.5252 61.0794 15.5345 62.4506C15.5493 64.2585 15.5345 64.2418 17.2258 63.596C22.407 61.6031 27.579 61.7141 32.5382 64.1919C35.3675 65.6056 38.2135 66.3569 41.3759 66.2995C44.3533 66.244 47.3417 66.4032 50.3172 66.603C53.2372 66.7881 55.541 68.2332 57.2083 70.6111C57.6931 71.3013 58.065 71.3364 58.7719 70.9923C62.194 69.3318 65.6309 67.7016 69.0826 66.1015C72.4967 64.5083 75.8922 65.1449 78.2848 67.7928C78.5003 68.0323 78.6987 68.2864 78.8788 68.5534C79.7171 69.7987 79.5653 70.5889 78.3033 71.4142C73.6933 74.4106 69.0783 77.3997 64.4583 80.3814C61.0183 82.6019 57.5377 84.7725 54.1458 87.0708C51.9345 88.5678 49.529 89.4338 46.9291 89.8649C46.7588 89.8945 46.5923 89.9501 46.4239 89.9945L41.5054 90.0037ZM54.2568 77.8037V77.5613C51.7125 77.5613 49.1681 77.5835 46.6219 77.5613C44.4865 77.5373 42.3529 77.4559 40.2175 77.3892C39.0314 77.3522 38.2986 76.7231 38.3023 75.7757C38.3023 74.7986 39.0814 74.1676 40.3156 74.1898C41.4851 74.2102 42.6527 74.286 43.8222 74.3212C47.4787 74.4359 51.1351 74.5266 54.7898 74.6635C55.5151 74.6913 55.665 74.5026 55.4171 73.8271C54.54 71.4216 52.1769 69.7562 49.5327 69.684C46.4313 69.6118 43.33 69.5545 40.2305 69.4601C39.209 69.4286 38.1857 69.3361 37.1717 69.214C35.0381 68.9549 33.1858 67.9316 31.2743 67.0416C26.206 64.6859 21.1876 64.8747 16.2691 67.5375C15.7713 67.8058 15.3679 68.0815 15.355 68.781C15.268 73.1702 15.1274 77.5558 15.0163 81.9432C14.9904 82.9239 15.0423 82.9665 15.8953 82.4743C18.2435 81.1197 20.6639 80.9735 23.2545 81.7341C28.8429 83.3662 34.4349 84.989 40.0695 86.4453C44.2533 87.5278 48.3132 87.0708 52.0363 84.6781C52.9948 84.0601 53.9571 83.4457 54.9156 82.8277C61.5032 78.5556 68.0883 74.286 74.6709 70.0189C74.9059 69.8672 75.2834 69.7784 75.2649 69.4379C75.2446 69.0678 74.8523 68.9679 74.5729 68.842C73.9655 68.5452 73.2985 68.3909 72.6225 68.3909C71.9465 68.3909 71.2794 68.5452 70.6721 68.842C67.2562 70.4501 63.8625 72.1062 60.4188 73.6532C59.353 74.1325 58.7275 74.5784 58.9051 75.9255C59.0791 77.2208 58.3019 77.8352 56.9788 77.7982C56.0721 77.7797 55.1654 77.8 54.2568 77.8V77.8037ZM12.2666 65.9368H12.3036C12.3036 65.4391 12.2703 64.9395 12.3036 64.4454C12.3591 63.7755 12.1186 63.5202 11.4191 63.5109C9.22816 63.4943 7.03354 63.4425 4.84446 63.3351C3.984 63.2926 3.76565 63.596 3.75085 64.425C3.69163 67.7281 3.54175 71.0293 3.45478 74.3305C3.36041 77.9259 3.30119 81.5231 3.21977 85.1185C3.21977 85.596 3.32155 85.8957 3.88963 85.905C6.2582 85.9494 8.62615 86.0111 10.9935 86.09C11.5671 86.1104 11.7485 85.8772 11.7614 85.3184C11.923 78.8566 12.0914 72.3961 12.2666 65.9368Z" fill="#0F284D"/>
<path d="M19.0003 40.5188C18.9429 29.1959 27.9601 19.0093 40.4747 19C52.9892 18.9908 61.9824 29.1034 61.9694 40.4947C61.9565 52.3376 52.2786 62.0247 40.4506 62.0061C28.6503 61.9895 19.0077 52.3265 19.0003 40.5188ZM40.4654 58.7956C49.7861 58.9215 58.7644 51.5345 58.8051 40.5133C58.8459 29.7807 50.1432 22.1735 40.5302 22.1421C31.0929 22.1125 22.1553 29.4976 22.1405 40.4985C22.1312 51.3161 30.9967 58.9122 40.4728 58.7956H40.4654Z" fill="#0F284D"/>
<path d="M42.2327 8.47872C42.2327 10.6123 42.2327 12.7458 42.2327 14.8794C42.2378 15.2578 42.1911 15.6351 42.0939 16.0008C42.0186 16.319 41.8364 16.6017 41.5777 16.8017C41.3191 17.0018 40.9996 17.107 40.6727 17.0999C39.9326 17.1166 39.4089 16.7187 39.1591 15.9897C39.0508 15.6287 39.0039 15.2522 39.0203 14.8757C39.0203 10.6407 39.0203 6.40376 39.0203 2.16501C39.013 1.87368 39.0347 1.58234 39.0851 1.2953C39.259 0.479257 39.8437 -8.17017e-06 40.6246 -8.17017e-06C40.9941 -0.00837815 41.3539 0.118723 41.6361 0.357332C41.9184 0.595941 42.1036 0.929568 42.1568 1.2953C42.222 1.75795 42.2455 2.22553 42.2271 2.69239C42.2364 4.6224 42.2327 6.54871 42.2327 8.47872Z" fill="#0F284D"/>
<path d="M50.0878 12.1796C50.0878 11.1878 50.0693 10.1941 50.0878 9.20225C50.1174 8.05868 50.7169 7.38697 51.6681 7.37772C52.6192 7.36847 53.265 8.05128 53.2798 9.17265C53.3094 11.1859 53.3094 13.1998 53.2798 15.2143C53.2632 16.3875 52.5877 17.1333 51.6551 17.1129C50.7225 17.0925 50.1229 16.3487 50.0822 15.157C50.0822 15.0996 50.0822 15.0404 50.0822 14.983C50.0847 14.0479 50.0866 13.1135 50.0878 12.1796Z" fill="#0F284D"/>
<path d="M31.1596 12.2166C31.1596 13.2381 31.1855 14.2521 31.1596 15.281C31.1226 16.3912 30.4657 17.1184 29.559 17.1129C28.6523 17.1073 27.9916 16.3875 27.975 15.2625C27.9454 13.2196 27.9454 11.1767 27.975 9.13379C27.9898 8.06423 28.6263 7.39067 29.5294 7.37216C30.4749 7.35366 31.1059 8.03647 31.1689 9.14674C31.1689 9.20595 31.1689 9.26331 31.1689 9.33178V12.2203L31.1596 12.2166Z" fill="#0F284D"/>
<path d="M34.2554 46.4776C34.2369 45.0139 34.7513 44.3403 35.671 44.2737C36.6332 44.2034 37.1957 44.7684 37.3586 45.9687C37.6065 47.771 38.8704 48.9831 40.5358 49.0164C42.2012 49.0497 43.5335 47.9357 43.8481 46.2296C44.1627 44.5235 42.7378 42.7249 40.8874 42.6009C39.209 42.4899 37.6584 42.0735 36.3797 40.9114C35.5944 40.2152 34.9938 39.3353 34.6315 38.3503C34.2693 37.3653 34.1566 36.306 34.3036 35.2668C34.4505 34.2277 34.8526 33.2411 35.4739 32.3953C36.0951 31.5494 36.9162 30.8706 37.8638 30.4194C38.5595 30.0845 38.8982 29.7459 38.8649 28.928C38.8204 27.8177 39.5255 27.0886 40.4377 27.0775C41.3204 27.0775 42.0236 27.7566 42.0162 28.828C42.0162 29.6459 42.3363 29.9587 43.0598 30.2677C45.4746 31.3002 46.8014 33.1932 46.9901 35.819C47.0697 36.9293 46.4924 37.614 45.5801 37.688C44.6678 37.762 44.0461 37.1698 43.8999 36.0744C43.6519 34.1999 42.4658 32.9952 40.8152 32.9379C39.0703 32.8768 37.7971 33.8816 37.4271 35.6118C37.0348 37.4622 38.517 39.2608 40.5191 39.3663C43.3873 39.5181 45.4894 40.8263 46.583 43.5206C47.8784 46.7089 46.2296 50.4764 43.0098 51.7014C42.2882 51.9771 42.0254 52.325 42.0236 53.0874C42.0236 54.2198 41.3296 54.9174 40.4155 54.8989C39.5014 54.8804 38.8241 54.1588 38.863 53.0374C38.8908 52.2362 38.591 51.879 37.8767 51.5385C36.8791 51.0911 36.0181 50.3868 35.3819 49.4976C34.7456 48.6084 34.3569 47.5662 34.2554 46.4776Z" fill="#0F284D"/>
</g>
<defs>
<clipPath id="clip0_98_13352">
<rect width="79.4099" height="90" fill="white"/>
</clipPath>
</defs>
</svg>
