<svg width="49" height="55" viewBox="0 0 49 55" fill="none" xmlns="http://www.w3.org/2000/svg">
<path d="M13.8037 55C12.829 54.6703 12.2557 53.9823 11.9403 53.0076C11.3239 51.1155 10.6502 49.252 10.0052 47.3743C9.77586 46.7006 9.57518 46.5859 8.85848 46.6002C7.18139 46.6289 5.48996 46.6432 3.81287 46.6432C3.29684 46.6432 2.78081 46.7292 2.26479 46.6576C0.358349 46.4425 -0.616371 44.4788 0.43002 42.8733C1.3044 41.5403 2.25045 40.2502 3.1535 38.9458C4.38624 37.1827 5.60463 35.4196 6.86604 33.6852C7.09538 33.3698 7.08105 33.1405 6.86604 32.8395C4.21423 28.9263 2.99583 24.5973 3.26817 19.9101C3.54052 15.1798 5.23195 10.9799 8.32812 7.35341C8.75814 6.85172 9.2885 6.73704 9.67552 7.06673C10.0912 7.39641 10.0769 7.95544 9.63252 8.48581C7.25306 11.281 5.74798 14.4775 5.20328 18.104C4.51524 22.7626 5.31795 27.1632 7.82642 31.1767C10.7649 35.8926 14.9648 38.9601 20.4404 39.9922C28.0519 41.4256 34.4735 39.1035 39.4331 33.1405C42.7157 29.1843 44.1491 24.5113 43.6044 19.4371C42.7587 11.4386 38.4871 5.77666 30.9187 2.95284C24.454 0.544708 18.3047 1.5911 12.7 5.61898C12.5997 5.69065 12.4993 5.77666 12.399 5.834C11.9403 6.10634 11.4816 6.03467 11.2093 5.64765C10.9369 5.26063 10.9799 4.78761 11.3956 4.45792C12.313 3.71255 13.3164 3.08185 14.3628 2.52282C17.975 0.573376 21.8452 -0.200666 25.9304 0.0716817C35.4483 0.673714 43.5757 8.07012 45.1381 17.5163C46.0555 23.0349 44.9374 28.1379 41.8413 32.7965C41.5976 33.1548 41.6119 33.3842 41.8556 33.7425C43.9484 36.6953 46.0125 39.6625 48.0909 42.6153C48.5496 43.2747 48.8077 43.9771 48.607 44.7798C48.306 46.0125 47.3169 46.7722 45.9408 46.7149C44.0487 46.6289 42.1423 46.6862 40.2502 46.6289C40.1068 46.6289 39.9635 46.6146 39.8202 46.6146C39.1178 46.5715 38.9171 46.7006 38.6734 47.3886C38.0284 49.2664 37.3547 51.1298 36.7383 53.0219C36.423 53.9966 35.8639 54.6847 34.8749 55.0143C34.4449 55.0143 34.0148 55.0143 33.5848 55.0143C32.8825 54.7563 32.3951 54.269 31.9651 53.6669C29.3993 49.9831 26.8048 46.3135 24.239 42.6297C24.0096 42.3143 23.766 42.1566 23.3646 42.128C21.5442 42.0133 19.7381 41.7266 17.9893 41.1676C14.3484 40.0065 11.2379 37.9854 8.67213 35.1616C8.34245 34.7889 8.18477 34.7889 7.89809 35.2046C5.97732 37.9711 4.04222 40.7089 2.10711 43.461C1.86343 43.8051 1.63409 44.1634 1.8491 44.5934C2.06411 45.0091 2.4798 44.9948 2.88115 44.9948C4.87359 44.9518 6.8517 44.9088 8.84414 44.8945C10.4066 44.8801 11.1519 45.4248 11.668 46.9156C12.313 48.7933 12.9724 50.6711 13.6031 52.5345C13.7321 52.9072 13.8898 53.2512 14.3198 53.3086C14.7641 53.3802 14.9935 53.0649 15.2085 52.7495C16.7279 50.5851 18.2473 48.4206 19.7667 46.2419C20.3258 45.4535 20.8705 44.6508 21.4438 43.8767C21.7162 43.504 22.1032 43.375 22.5332 43.5901C22.8916 43.7621 23.0493 44.0774 23.0062 44.4644C22.9776 44.7224 22.8056 44.9231 22.6622 45.1238C20.6698 47.962 18.6773 50.8001 16.6849 53.6526C16.2692 54.2546 15.7675 54.742 15.0651 55C14.6638 55 14.2338 55 13.8037 55ZM45.3101 44.9805C45.5825 44.9805 45.8548 44.9948 46.1128 44.9805C46.8152 44.9375 47.1162 44.3784 46.7722 43.7621C46.6862 43.6044 46.5715 43.461 46.4712 43.3177C44.5648 40.6086 42.6583 37.9137 40.7805 35.1903C40.4795 34.7602 40.3219 34.7889 39.9922 35.1473C36.3656 39.1178 31.8647 41.3969 26.5324 42.0133C26.0021 42.0706 26.0307 42.1996 26.2888 42.558C28.6826 45.9408 31.062 49.338 33.4415 52.7352C33.6708 53.0506 33.9002 53.3659 34.3302 53.2942C34.7602 53.2369 34.9179 52.8929 35.0469 52.5202C35.6919 50.6281 36.3513 48.736 36.9963 46.8439C37.4837 45.4248 38.2577 44.8658 39.7628 44.8801C41.6263 44.8945 43.4754 44.8515 45.3101 44.9805Z" fill="#FAFAFA"/>
<path d="M24.3537 4.85927C33.2981 4.85927 40.6229 12.1553 40.5799 21.0855C40.5512 29.901 33.5132 37.2974 24.3107 37.283C15.1655 37.2687 8.11311 29.901 8.08444 21.0425C8.07011 12.1267 15.3948 4.84494 24.3537 4.85927ZM24.3393 6.60804C16.4126 6.5077 9.80453 13.1301 9.8332 21.0568C9.86187 29.0553 16.3122 35.5486 24.3107 35.5486C32.3521 35.5486 38.8168 29.0696 38.8311 21.0425C38.8598 13.0727 32.2374 6.49336 24.3393 6.60804Z" fill="#FAFAFA"/>
<path d="M17.7052 16.3787C18.3502 16.3787 18.9953 16.3643 19.6403 16.3787C20.185 16.393 20.5003 16.1637 20.658 15.6333C21.045 14.3862 21.4464 13.1535 21.8621 11.9064C22.2778 10.6737 23.1522 10 24.2989 10C25.4313 10.0143 26.2913 10.688 26.6927 11.8921C27.094 13.1105 27.4954 14.3432 27.8824 15.5616C28.0114 15.963 28.2121 16.2497 28.6135 16.4073C29.1438 16.6224 29.3302 17.081 29.1295 17.5254C28.9431 17.9698 28.4844 18.1561 27.9541 17.9841C27.1227 17.7118 26.5923 17.1527 26.32 16.3357C25.89 15.0313 25.4599 13.7269 25.0443 12.4081C24.9439 12.1071 24.8149 11.8348 24.4709 11.7631C23.9835 11.6771 23.6825 11.8778 23.5392 12.3365C23.1522 13.5405 22.7651 14.7446 22.3638 15.963C21.8477 17.5541 21.1024 18.0844 19.4396 18.0844C18.2069 18.0844 16.9741 18.0844 15.7271 18.0844C15.2971 18.0844 14.9387 18.1848 14.781 18.6291C14.6377 19.0592 14.8814 19.3315 15.211 19.5752C16.2718 20.3349 17.3325 21.1089 18.3789 21.883C19.5113 22.7144 19.8266 23.7034 19.3966 25.0365C18.9953 26.2549 18.6082 27.4876 18.2069 28.706C18.0779 29.1074 18.0205 29.4801 18.4076 29.7667C18.8089 30.0678 19.1529 29.8814 19.4826 29.6377C20.5147 28.8924 21.5467 28.147 22.5645 27.4016C23.7685 26.5272 24.7576 26.5129 25.9616 27.3873C26.9937 28.1326 28.0258 28.878 29.0435 29.6234C29.4018 29.8814 29.7458 30.0678 30.1615 29.7524C30.5486 29.4514 30.4626 29.0787 30.3335 28.6773C29.9322 27.4589 29.5308 26.2262 29.1438 25.0078C28.7281 23.7034 29.0435 22.7287 30.1472 21.9116C31.1506 21.1663 32.1683 20.4352 33.186 19.7042C33.5587 19.4318 33.9601 19.1738 33.7594 18.6291C33.5587 18.0988 33.1 18.0988 32.6413 18.1131C32.412 18.1131 32.1683 18.1274 31.939 18.0844C31.5233 17.9984 31.2796 17.7118 31.2509 17.2961C31.2366 16.909 31.4373 16.565 31.8243 16.479C33.3007 16.1493 35.1498 16.5077 35.5082 18.5145C35.6802 19.4748 35.3075 20.2776 34.5334 20.8509C33.4727 21.6393 32.3977 22.4133 31.3226 23.1874C30.6202 23.7034 30.5772 23.8324 30.8496 24.6781C31.2223 25.8249 31.5806 26.9573 31.9533 28.0896C32.3833 29.4227 32.111 30.4691 31.1649 31.1571C30.2045 31.8452 29.1008 31.7878 27.9971 30.9851C26.965 30.2398 25.933 29.4944 24.9152 28.749C24.4852 28.4193 24.0839 28.4193 23.6395 28.749C22.5931 29.5231 21.5324 30.2828 20.4717 31.0568C19.4396 31.8022 18.3072 31.8452 17.3898 31.1715C16.4581 30.4978 16.1571 29.4371 16.5585 28.2043C16.9311 27.0289 17.3182 25.8535 17.7052 24.6925C17.9775 23.8324 17.9345 23.7034 17.1892 23.1587C16.1571 22.4133 15.125 21.668 14.1073 20.9083C13.1613 20.2059 12.8029 19.2312 13.1039 18.1848C13.3906 17.1814 14.1933 16.5364 15.3401 16.393C15.4404 16.3787 15.5551 16.3643 15.6554 16.3643C16.3434 16.393 17.0315 16.393 17.7052 16.3787C17.7052 16.393 17.7052 16.393 17.7052 16.3787Z" fill="#FAFAFA"/>
</svg>
