<svg width="86" height="86" viewBox="0 0 86 86" fill="none" xmlns="http://www.w3.org/2000/svg">
<g clip-path="url(#clip0_98_13340)">
<path d="M45.6875 4.60958e-06C48.0391 0.365057 50.375 0.797297 52.5765 1.74688C61.5774 5.62808 67.0195 12.3737 68.6029 22.0621C70.5357 33.8871 63.4138 45.9339 52.1644 50.0278C51.9539 50.104 51.7456 50.1891 51.5306 50.2518C50.6527 50.4981 49.9002 50.1577 49.6001 49.3828C49.521 49.1941 49.482 48.991 49.4856 48.7865C49.4891 48.5819 49.535 48.3803 49.6205 48.1944C49.706 48.0085 49.8291 47.8424 49.9821 47.7066C50.1351 47.5707 50.3146 47.4681 50.5093 47.4053C51.8759 46.9053 53.1963 46.2871 54.4555 45.5576L54.5294 45.5151C57.4565 43.7861 57.7297 43.2755 56.9929 39.9295C56.2359 36.4582 54.2046 33.9476 50.9908 32.4001C50.8217 32.3082 50.6302 32.2658 50.4381 32.2777C50.246 32.2896 50.0612 32.3553 49.9046 32.4672C45.3001 35.1951 40.6902 35.1951 36.0752 32.4672C35.9327 32.3588 35.7632 32.2915 35.5852 32.2726C35.4071 32.2536 35.2273 32.2838 35.0652 32.3597C30.9869 34.2029 28.4046 38.3305 28.7607 43.262C28.7921 43.7256 29.1213 43.9339 29.4326 44.1579C31.2121 45.4785 33.1734 46.5346 35.2555 47.2933C35.8109 47.4926 36.2835 47.7815 36.4403 48.3795C36.5316 48.6472 36.5429 48.9357 36.4729 49.2097C36.4029 49.4837 36.2546 49.7314 36.0461 49.9226C35.8318 50.1254 35.5633 50.2616 35.2731 50.3149C34.9829 50.3682 34.6835 50.3361 34.4112 50.2227C31.8364 49.3431 29.4258 48.0413 27.2781 46.3706C21.6209 41.9608 18.2302 36.1872 17.3277 29.0832C16.3646 21.4978 18.4318 14.7051 23.4148 8.89563C27.7708 3.82073 33.3474 0.920472 39.9878 0.0895866C40.0972 0.0671033 40.2044 0.0348757 40.308 -0.00671387L45.6875 4.60958e-06ZM60.2448 40.6149C67.2345 33.0451 68.4954 19.0857 59.237 9.72204C57.0981 7.54273 54.5424 5.81628 51.7222 4.64553C48.902 3.47479 45.875 2.88372 42.8215 2.90755C39.7681 2.93137 36.7507 3.5696 33.9491 4.78421C31.1475 5.99881 28.6191 7.76494 26.5144 9.97735C17.2358 19.6904 19.1238 33.6049 25.7619 40.5969C25.791 40.4312 25.8112 40.3013 25.8336 40.1714C26.5055 36.0304 28.5659 32.7674 32.1044 30.474C33.0182 29.8828 33.0249 29.894 32.3821 28.9668C30.851 26.8028 30.0186 24.2222 29.9966 21.5714C29.9747 18.9206 30.7644 16.3265 32.2595 14.1375C33.7547 11.9485 35.8838 10.2694 38.361 9.32557C40.8382 8.38176 43.5448 8.21844 46.1175 8.85756C54.9818 11.0008 58.9033 21.6613 53.5462 29.0474C52.9438 29.8761 52.9482 29.8716 53.8374 30.4359C55.6208 31.5578 57.1245 33.0722 58.2337 34.8636C59.3243 36.6194 59.9223 38.5455 60.2448 40.6149ZM42.9709 31.3967C44.9281 31.4025 46.843 30.8278 48.4736 29.7453C50.1042 28.6628 51.3772 27.1212 52.1317 25.3152C52.8862 23.5093 53.0883 21.5203 52.7125 19.5995C52.3366 17.6787 51.3997 15.9125 50.0201 14.5242C48.6406 13.1359 46.8803 12.1878 44.962 11.7998C43.0437 11.4118 41.0533 11.6012 39.2427 12.3443C37.432 13.0873 35.8823 14.3506 34.7895 15.9743C33.6968 17.598 33.1099 19.5092 33.1033 21.4664C33.0866 22.7698 33.3299 24.0635 33.8191 25.2717C34.3083 26.4799 35.0335 27.5785 35.9523 28.5031C36.8711 29.4278 37.9651 30.1599 39.1702 30.6568C40.3753 31.1536 41.6674 31.4052 42.9709 31.3967Z" fill="#0F284D"/>
<path d="M31.4101 86C29.5311 84.8197 29.1885 83.9844 29.5804 81.803C30.1045 78.8916 30.5815 75.9622 31.119 73.0485C31.222 72.4998 30.9667 72.2154 30.6397 71.8974C28.3441 69.6802 26.0284 67.4854 23.7687 65.2323C22.042 63.5101 22.8281 60.8472 25.1908 60.2493C25.4618 60.1821 25.7395 60.1373 26.015 60.097C28.9488 59.6782 31.8782 59.2437 34.8165 58.8563C35.5108 58.7644 35.8759 58.4352 36.1737 57.8216C37.4548 55.1766 38.8075 52.5675 40.093 49.9248C40.7044 48.6706 41.5353 47.8129 43.0291 47.8129C44.5229 47.8129 45.3314 48.7199 45.9406 49.9629C47.2126 52.5787 48.5474 55.1654 49.8128 57.788C50.1219 58.433 50.5093 58.7711 51.2327 58.8652C54.1441 59.2482 57.0444 59.6782 59.9491 60.0903C60.1731 60.1216 60.3971 60.1619 60.6098 60.2022C61.8192 60.4262 62.6456 61.0869 63.0308 62.2627C63.416 63.4384 63.0532 64.4798 62.1977 65.3242C60.5628 66.9344 58.8965 68.5133 57.2437 70.1057C56.5719 70.7462 55.9269 71.4002 55.246 72.0272C55.0982 72.1512 54.9893 72.3152 54.9325 72.4996C54.8757 72.6839 54.8733 72.8808 54.9258 73.0664C55.4476 75.9532 55.9291 78.849 56.4397 81.7403C56.8384 84.009 56.48 84.8601 54.5921 85.9955H52.7444C49.6941 84.4039 46.6453 82.8101 43.598 81.214C43.4327 81.1117 43.2427 81.056 43.0484 81.0528C42.854 81.0497 42.6624 81.0992 42.4938 81.1961C39.4211 82.8056 36.3432 84.4054 33.26 85.9955L31.4101 86ZM32.512 82.8646C32.6775 82.8211 32.8399 82.7665 32.998 82.7011C35.9095 81.1894 38.8209 79.6978 41.701 78.148C42.5745 77.6777 43.3471 77.6105 44.2295 78.0943C45.9719 79.0483 47.7412 79.9509 49.5037 80.8669C50.787 81.5388 52.077 82.186 53.4633 82.8982C53.4454 82.6451 53.4454 82.5376 53.4275 82.4346C52.8743 79.2118 52.3368 75.9868 51.7545 72.7685C51.5843 71.8302 51.7657 71.1001 52.4913 70.4371C53.9351 69.1128 55.3475 67.7549 56.7286 66.3633C57.7454 65.3443 58.695 64.2604 59.6782 63.2033C59.4908 63.1387 59.2993 63.087 59.1048 63.0488C55.9515 62.6008 52.8004 62.1148 49.6403 61.705C48.6773 61.5796 48.0726 61.163 47.6516 60.2896C46.2854 57.4677 44.87 54.6727 43.4613 51.871C43.3449 51.647 43.3135 51.235 42.991 51.2529C42.6685 51.2708 42.6528 51.6605 42.5431 51.9001C41.1098 54.7489 39.672 57.5976 38.2655 60.462C38.1204 60.7957 37.8884 61.0844 37.5938 61.2979C37.2991 61.5114 36.9526 61.6419 36.5903 61.6759C34.1559 62.0118 31.717 62.3478 29.287 62.7195C28.2814 62.8785 27.2468 62.9077 26.2793 63.219C26.2793 63.5213 26.4763 63.6221 26.6085 63.7497C28.8816 65.949 31.1369 68.1662 33.4504 70.3229C34.1872 71.0105 34.4694 71.7473 34.288 72.7126C34.0909 73.7562 33.9117 74.8043 33.7303 75.848C33.3205 78.1659 32.9241 80.4705 32.512 82.8735V82.8646Z" fill="#0F284D"/>
<path d="M86 56.6055C85.7011 57.2077 85.2889 57.7468 84.7862 58.1933C83.0975 59.7901 81.4268 61.4138 79.7538 63.0129C79.6194 63.1311 79.5209 63.2846 79.4694 63.4561C79.4179 63.6275 79.4156 63.81 79.4627 63.9826C79.8972 66.4327 80.2913 68.8896 80.7213 71.3397C80.9206 72.4707 80.6004 73.4023 79.6934 74.0832C79.2958 74.402 78.8115 74.5939 78.3035 74.6338C77.7954 74.6737 77.2871 74.5599 76.8446 74.3071C74.7528 73.2321 72.6611 72.1638 70.6006 71.0329C69.8638 70.6297 69.2569 70.5849 68.5044 71.0037C66.5246 72.1056 64.5 73.1246 62.4866 74.166C61.4609 74.6968 60.5919 74.5132 60.1485 73.7002C59.7342 72.9387 59.9111 72.1101 60.7151 71.6846C63.4026 70.2445 66.1125 68.847 68.8269 67.4518C69.4226 67.1449 70.0206 67.3151 70.5917 67.6152C72.5984 68.6693 74.6073 69.7182 76.6184 70.7619C76.876 70.8962 77.1559 71.2255 77.4403 71.0172C77.7248 70.8089 77.4605 70.4931 77.4157 70.2288C77.0394 68.0251 76.6699 65.8191 76.269 63.6198C76.1771 63.239 76.1912 62.8403 76.3096 62.4668C76.428 62.0934 76.6463 61.7595 76.9409 61.5012C78.7886 59.7543 80.6071 57.9738 82.5779 56.0724C81.1916 55.8642 79.9711 55.6738 78.7505 55.4991C77.4232 55.3065 76.0943 55.1229 74.764 54.9482C74.3875 54.9132 74.0276 54.7765 73.7226 54.5529C73.4177 54.3292 73.1793 54.0269 73.0328 53.6783C72.0273 51.5843 70.9747 49.5149 69.9288 47.4411C69.8235 47.2328 69.7899 46.87 69.4808 46.9148C69.3353 46.9372 69.2076 47.2395 69.1091 47.4321C68.0789 49.4836 67.0375 51.5283 66.0453 53.5977C65.885 53.9691 65.6272 54.2901 65.2991 54.5267C64.971 54.7633 64.585 54.9066 64.182 54.9414C61.4407 55.3222 58.7062 55.732 55.965 56.115C54.8788 56.2673 54.0927 55.7432 53.9493 54.8205C53.806 53.8978 54.4622 53.217 55.5641 53.058C57.9448 52.7153 60.321 52.3592 62.7061 52.0569C62.9401 52.0399 63.1647 51.9574 63.354 51.8187C63.5433 51.6801 63.6898 51.491 63.7766 51.273C64.8136 49.1633 65.8796 47.0693 66.912 44.9596C67.4451 43.8757 68.202 43.1388 69.4831 43.1209C70.7641 43.103 71.5435 43.8398 72.0788 44.9126C73.1426 47.0402 74.2176 49.1678 75.2612 51.2999C75.3499 51.5157 75.4984 51.7016 75.6893 51.8357C75.8801 51.9699 76.1054 52.0466 76.3385 52.0569C78.7214 52.3614 81.0953 52.7422 83.476 53.0647C84.6742 53.2259 85.4715 53.8687 85.9821 54.9258L86 56.6055Z" fill="#0F284D"/>
<path d="M-7.31274e-06 54.9258C0.571086 53.6716 1.58786 53.1655 2.92265 53.0109C5.25182 52.7377 7.56978 52.3391 9.89671 52.0367C10.376 51.974 10.5507 51.6829 10.7298 51.3223C11.7892 49.1947 12.8686 47.0671 13.9145 44.9395C14.4475 43.8466 15.2023 43.112 16.4878 43.1209C17.7733 43.1299 18.5325 43.8622 19.0678 44.9484C20.0935 47.0335 21.1506 49.1006 22.1696 51.1879C22.2623 51.4321 22.4233 51.6445 22.6333 51.7998C22.8434 51.9551 23.0937 52.0466 23.3544 52.0636C25.6567 52.348 27.9478 52.7086 30.2433 53.0445C30.6912 53.1095 31.1392 53.1677 31.4953 53.4768C32.0014 53.9247 32.2097 54.4779 31.9566 55.1363C31.8477 55.4753 31.6194 55.7632 31.3142 55.9466C31.0089 56.1299 30.6475 56.1961 30.2971 56.1329C28.9645 55.9806 27.6387 55.7723 26.3084 55.5865C24.8437 55.3782 23.379 55.1385 21.9098 54.9661C20.9961 54.8563 20.3668 54.4555 19.9569 53.6067C18.9872 51.591 17.9726 49.5933 16.9626 47.5956C16.8327 47.3381 16.8058 46.8991 16.4542 46.9058C16.172 46.9058 16.125 47.3179 16.0063 47.5598C14.9985 49.5575 13.966 51.5462 13.012 53.5708C12.5909 54.4667 11.9459 54.8496 10.9963 54.9706C8.53281 55.2931 6.06926 55.6604 3.68411 56.0008C4.61129 57.0086 5.52504 58.0433 6.48807 59.0309C7.34359 59.9156 8.24838 60.7532 9.14421 61.5975C9.40343 61.8341 9.5941 62.1361 9.69617 62.4719C9.79825 62.8077 9.80795 63.1648 9.72426 63.5056C9.30994 65.8169 8.92025 68.1326 8.51713 70.4483C8.48577 70.6387 8.37379 70.8604 8.53504 71.006C8.759 71.1986 8.95161 70.9813 9.13525 70.885C11.1979 69.8145 13.2628 68.7507 15.3075 67.6533C15.6549 67.4424 16.053 67.3299 16.4594 67.3279C16.8657 67.3259 17.265 67.4345 17.6143 67.6421C20.0577 68.9433 22.5235 70.2064 24.9736 71.4987C25.9568 72.016 26.277 72.8021 25.8694 73.6218C25.4618 74.4415 24.5772 74.717 23.5694 74.2019C21.603 73.1941 19.6232 72.2042 17.7084 71.1045C16.7834 70.576 16.0578 70.6387 15.1597 71.1471C13.1844 72.2669 11.1531 73.268 9.13525 74.3004C8.12072 74.8178 7.11963 74.7483 6.22379 74.0317C5.81412 73.7303 5.50352 73.3137 5.3316 72.835C5.15969 72.3563 5.13425 71.8373 5.25853 71.3442C5.38843 70.7148 5.48249 70.0766 5.58103 69.4428C5.88338 67.6802 6.16109 65.9109 6.50598 64.1573C6.56712 63.9177 6.55734 63.6655 6.47782 63.4313C6.3983 63.1971 6.25248 62.9911 6.05807 62.8382C4.34926 61.2235 2.67181 59.5751 0.978689 57.947C0.561644 57.5692 0.223664 57.1125 -0.015686 56.6032L-7.31274e-06 54.9258Z" fill="#0F284D"/>
<path d="M35.3742 67.6421C34.3552 67.622 33.7169 67.0733 33.6094 66.2827C33.5704 65.9015 33.6788 65.5199 33.9125 65.2162C34.1462 64.9125 34.4874 64.7099 34.8658 64.6501C36.0752 64.4261 37.2958 64.2604 38.5141 64.1126C39.2084 64.0274 39.6809 63.7766 39.9743 63.0801C40.4222 61.9984 40.9754 60.9547 41.5196 59.9156C42.0415 58.919 42.9082 58.6032 43.7301 59.0511C44.5028 59.4721 44.7043 60.3321 44.2251 61.3064C43.4994 62.789 42.7447 64.2559 42.0191 65.7385C41.8814 66.0609 41.6594 66.3402 41.3765 66.5471C41.0935 66.754 40.76 66.8809 40.4111 66.9143C38.6664 67.1472 36.9263 67.4159 35.3742 67.6421Z" fill="#0F284D"/>
</g>
<defs>
<clipPath id="clip0_98_13340">
<rect width="86" height="86" fill="white"/>
</clipPath>
</defs>
</svg>
