<svg width="56" height="56" viewBox="0 0 56 56" fill="none" xmlns="http://www.w3.org/2000/svg">
<path d="M27.7222 55.3746C20.1005 55.3746 12.4936 55.3746 4.87194 55.3746C2.63547 55.3746 0.85513 53.9488 0.443149 51.7585C0.251873 50.7296 0.296012 49.6565 0.41372 48.6276C0.560856 47.3781 1.72323 46.4962 3.03274 46.4815C3.88613 46.4668 3.88613 46.4668 3.88613 45.5995C3.88613 35.7215 3.91556 25.8288 3.85671 15.9508C3.84199 14.1722 5.13679 12.864 6.87299 12.9522C8.59448 13.0404 10.316 12.9669 12.0522 12.9816C12.4053 12.9816 12.6701 12.9375 12.832 12.5553C13.0086 12.129 13.4353 12.0849 13.8619 12.0849C14.8919 12.0849 14.8772 12.0702 15.245 11.1441C15.4363 10.6297 15.6423 10.1152 15.9071 9.6301C16.1131 9.24792 16.069 8.99802 15.7453 8.73344C15.554 8.58644 15.3922 8.41005 15.245 8.21896C14.833 7.74858 14.8183 7.30759 15.2597 6.85191C16.4663 5.61716 17.6875 4.39711 18.9234 3.19176C19.3943 2.73608 19.9092 2.69199 20.3212 3.20646C20.9392 3.98553 21.5277 4.07373 22.337 3.52985C22.6901 3.29466 23.1462 3.16237 23.5582 3.05947C24.0438 2.94188 24.2203 2.67729 24.1615 2.19221C24.132 1.97172 24.1468 1.75123 24.1615 1.53074C24.1909 0.972158 24.5146 0.634071 25.0737 0.634071C26.8393 0.619372 28.605 0.619372 30.3559 0.634071C30.9297 0.634071 31.3417 1.00156 31.2534 1.57483C31.1063 2.60379 31.5183 3.07417 32.4894 3.27996C32.9602 3.38286 33.4016 3.66215 33.843 3.88264C34.1079 4.02963 34.3286 4.02963 34.5198 3.77974C34.5493 3.73564 34.5934 3.70624 34.6375 3.66215C35.7411 2.57439 35.9176 2.57439 37.0211 3.69154C38.007 4.6764 38.9928 5.66126 39.9786 6.66082C40.6554 7.35169 40.6554 7.74858 39.9933 8.42475C39.9491 8.46885 39.9197 8.51294 39.8756 8.54234C39.3606 8.90983 39.2723 9.30671 39.6402 9.87999C39.9786 10.3945 40.1699 11.0118 40.3464 11.6145C40.4494 11.9673 40.6407 12.1437 41.0085 12.0996C41.2587 12.0702 41.5235 12.0996 41.7736 12.0996C42.1562 12.0996 42.4799 12.2466 42.6123 12.5994C42.7447 12.9522 42.9949 12.9816 43.3038 12.9816C45.0842 12.9669 46.8645 12.9816 48.6449 12.9816C50.4547 12.9816 51.5287 14.0399 51.5287 15.8479C51.5287 25.7847 51.5287 35.7215 51.5287 45.673C51.5287 46.4815 51.5287 46.4815 52.3233 46.4962C53.9418 46.5109 55.0453 47.6133 55.0453 49.245C55.0453 50.0681 55.1336 50.906 54.9864 51.7145C54.5892 53.9047 52.7941 55.3746 50.5429 55.3893C42.9507 55.3746 35.3291 55.3746 27.7222 55.3746ZM27.7222 42.9389C33.5929 42.9389 39.4636 42.9389 45.3343 42.9389C46.1877 42.9389 46.1877 42.9389 46.1877 42.1157C46.1877 37.6471 46.1877 33.1932 46.1877 28.7246C46.1877 25.4613 46.1877 22.1834 46.2024 18.9201C46.2024 18.4791 46.0847 18.288 45.6139 18.3174C44.8929 18.3468 44.1867 18.3321 43.4657 18.3174C43.0831 18.3174 42.7594 18.3174 42.5976 18.7731C42.4946 19.0524 42.2003 19.1994 41.8766 19.1994C41.5971 19.1994 41.3175 19.2288 41.0527 19.1994C40.6407 19.1553 40.4641 19.3464 40.3464 19.7139C40.1846 20.2431 39.9786 20.7575 39.7432 21.2573C39.3312 22.1687 39.3165 22.1687 40.0374 22.889C40.6701 23.5357 40.6701 23.962 40.008 24.6235C39.0663 25.5789 38.1099 26.5197 37.1683 27.4752C35.8735 28.7687 35.8588 28.7834 34.5493 27.534C34.3138 27.2988 34.1226 27.2694 33.8283 27.4311C33.2986 27.725 32.7395 27.9602 32.1657 28.166C31.1946 28.5188 31.2828 28.2689 31.2828 29.4155C31.2828 29.4449 31.2828 29.489 31.2828 29.5184C31.2681 30.3709 30.9886 30.6649 30.1058 30.6649C28.7227 30.6649 27.3543 30.6502 25.9712 30.6649C24.5882 30.6796 24.0143 30.7531 24.1467 28.901C24.1762 28.5335 23.9996 28.3865 23.6759 28.2689C23.1609 28.0925 22.646 27.9014 22.1457 27.6663C21.1893 27.24 21.1893 27.2253 20.4683 27.9455C19.8357 28.5629 19.409 28.5776 18.7763 27.9602C17.8052 27.0048 16.8488 26.0346 15.8924 25.0792C14.5976 23.7856 14.5829 23.7709 15.8336 22.4627C16.069 22.2128 16.0984 22.0217 15.9366 21.7424C15.6276 21.1985 15.3922 20.6252 15.1862 20.0226C14.8772 19.1259 15.0685 19.1994 14.0091 19.1994C13.6265 19.1994 13.1263 19.2876 12.9644 18.8907C12.6701 18.1851 12.1257 18.3174 11.5961 18.3174C11.0664 18.3174 10.5367 18.3174 10.007 18.3174C9.25659 18.3174 9.2566 18.3174 9.2566 19.0818C9.2566 26.7843 9.2566 34.4721 9.2566 42.1745C9.2566 42.9389 9.25659 42.9389 10.0511 42.9389C15.9366 42.9389 21.822 42.9389 27.7222 42.9389ZM27.7222 53.5225C35.1231 53.5225 42.5093 53.5225 49.9103 53.5225C50.0868 53.5225 50.2781 53.5225 50.4547 53.5225C52.132 53.4784 53.1914 52.4053 53.2208 50.7296C53.2355 50.4062 53.2208 50.0681 53.2208 49.7447C53.2208 48.5541 52.9854 48.3189 51.8083 48.3189C46.0994 48.3189 40.3906 48.3189 34.6817 48.3189C33.9166 48.3189 33.9166 48.3189 33.9019 49.1127C33.8872 50.7296 32.7689 51.8467 31.1651 51.8467C28.8698 51.8467 26.5745 51.8467 24.2792 51.8467C22.5871 51.8467 21.4983 50.7443 21.4983 49.0539C21.4983 48.3336 21.4983 48.3336 20.7773 48.3336C15.0538 48.3336 9.33016 48.3336 3.59186 48.3336C3.43001 48.3336 3.25345 48.3336 3.0916 48.3483C2.56191 48.4071 2.22349 48.6864 2.20878 49.2303C2.17935 49.9946 2.10578 50.7737 2.29706 51.5381C2.54719 52.567 3.19459 53.1991 4.20983 53.4637C4.59238 53.5666 4.97494 53.5666 5.35749 53.5666C12.8173 53.5225 20.2624 53.5225 27.7222 53.5225ZM27.6927 46.4668C34.8141 46.4668 41.9355 46.4668 49.0569 46.4815C49.5571 46.4815 49.719 46.3639 49.719 45.8347C49.7043 35.9126 49.7043 25.9905 49.7043 16.0684C49.7043 15.0836 49.41 14.8043 48.4095 14.7896C46.8793 14.7896 45.3638 14.7749 43.8335 14.7896C42.5829 14.8043 42.7594 14.5985 42.7153 15.9067C42.7006 16.3918 42.8919 16.4947 43.3333 16.4947C44.5251 16.4653 45.7169 16.48 46.9087 16.4947C47.7032 16.4947 48.0122 16.8034 48.0122 17.5972C48.0122 26.2845 48.0122 34.9718 48.0122 43.6739C48.0122 44.497 47.7032 44.791 46.8792 44.791C44.9959 44.791 43.0979 44.791 41.2145 44.791C30.3706 44.791 19.512 44.791 8.66805 44.791C7.7411 44.791 7.4174 44.5264 7.4174 43.718C7.4174 34.9865 7.4174 26.2698 7.4174 17.5384C7.4174 16.8181 7.74109 16.4947 8.46206 16.4947C9.50672 16.48 10.5514 16.4947 11.5961 16.4947C12.8467 16.48 12.6701 16.6858 12.6996 15.3776C12.7143 14.9513 12.5672 14.8043 12.1405 14.8043C10.4631 14.819 8.80047 14.8043 7.12313 14.819C5.97546 14.819 5.72533 15.0689 5.72533 16.2007C5.72533 26.0493 5.72533 35.8979 5.72533 45.7465C5.72533 46.4962 5.72533 46.4962 6.49043 46.4962C13.553 46.4668 20.6302 46.4668 27.6927 46.4668ZM35.487 25.826C35.663 26.0478 35.9674 26.0143 36.1678 25.8141C36.7269 25.2555 37.2713 24.6823 37.8451 24.1384C38.1541 23.8444 38.1835 23.6092 37.8451 23.3446C37.7127 23.2417 37.6097 23.1094 37.492 22.9918C37.1094 22.595 37.0653 22.1687 37.3596 21.6836C38.0364 20.5811 38.5366 19.4052 38.8309 18.141C38.9486 17.6266 39.287 17.362 39.8167 17.362C40.0227 17.362 40.2287 17.3473 40.42 17.362C40.7878 17.3914 40.9055 17.2297 40.9055 16.8769C40.8908 16.2154 40.9055 15.554 40.9055 14.8925C40.9055 13.7606 40.9938 13.9076 39.9492 13.9076C39.3753 13.9076 38.9781 13.6871 38.8456 13.1286C38.5514 11.8497 38.0364 10.6591 37.3448 9.5272C37.0653 9.07152 37.1389 8.64524 37.5067 8.27775C37.6391 8.14546 37.7568 7.99846 37.8892 7.88087C38.1835 7.64568 38.1835 7.42519 37.904 7.1606C37.389 6.69022 36.9182 6.17574 36.4179 5.69066C35.7558 5.02919 35.8735 5.07329 35.2408 5.69066C34.6523 6.27864 34.3433 6.32273 33.637 5.89645C32.6071 5.27908 31.5183 4.8234 30.3412 4.52941C29.6644 4.36772 29.4584 4.08843 29.4436 3.41226C29.4436 3.23586 29.4289 3.04477 29.4436 2.86838C29.4584 2.55969 29.3259 2.44209 29.017 2.44209C28.3401 2.45679 27.6633 2.44209 26.9865 2.44209C25.8535 2.44209 26.0007 2.3539 26.0007 3.39755C26.0007 3.97083 25.78 4.36771 25.2208 4.50001C23.9408 4.794 22.749 5.32318 21.6307 5.99935C21.1746 6.27864 20.7626 6.20514 20.3801 5.83765C20.2476 5.70536 20.1005 5.58776 19.9975 5.45547C19.7621 5.16148 19.5414 5.16149 19.2766 5.44077C18.7321 6.01405 18.173 6.57263 17.5992 7.1165C17.2755 7.41049 17.2608 7.64568 17.5992 7.91027C17.7463 8.02786 17.864 8.16016 17.9818 8.30715C18.3202 8.67464 18.3643 9.08622 18.1142 9.5272C17.4226 10.6591 16.9077 11.8791 16.5987 13.1726C16.481 13.6577 16.1426 13.9076 15.6276 13.9076C15.4216 13.9076 15.2156 13.9223 15.0243 13.9076C14.6565 13.8782 14.5388 14.0399 14.5535 14.3927C14.5682 15.0542 14.5535 15.7156 14.5535 16.3771C14.5535 17.509 14.4652 17.362 15.5246 17.362C16.069 17.362 16.481 17.5531 16.6134 18.0969C16.9224 19.4199 17.4521 20.6399 18.1583 21.7865C18.4085 22.1981 18.3202 22.595 18.0112 22.9477C17.864 23.1094 17.7169 23.2711 17.5403 23.4181C17.2902 23.6386 17.2902 23.815 17.5403 24.0502C18.1289 24.6088 18.7027 25.1821 19.2471 25.77C19.5414 26.0934 19.7768 26.1081 20.0417 25.77C20.1299 25.6524 20.2476 25.5642 20.3506 25.4613C20.7479 25.0498 21.1893 24.9763 21.6896 25.2849C22.7931 25.9611 23.9702 26.4756 25.2356 26.7549C25.7505 26.8725 26.0154 27.2106 26.0154 27.7397C26.0154 27.9455 26.0301 28.1513 26.0154 28.3424C25.9859 28.7099 26.1478 28.8275 26.5009 28.8128C27.2219 28.7981 27.9281 28.8128 28.6491 28.8128C29.4584 28.8128 29.4584 28.8128 29.4584 28.019C29.4584 27.1077 29.6202 26.9166 30.503 26.6814C31.5183 26.4168 32.4894 26.0199 33.4016 25.5054C34.4757 24.8881 34.5493 24.9028 35.4321 25.7553C35.4502 25.7787 35.4684 25.8024 35.487 25.826ZM27.7222 48.3189C26.4421 48.3189 25.162 48.3189 23.8672 48.3189C23.6612 48.3189 23.4258 48.2601 23.3522 48.5835C23.1757 49.3919 23.6171 49.9946 24.441 49.9946C26.6186 50.0093 28.811 49.9946 30.9886 49.9946C31.1651 49.9946 31.3564 49.9652 31.5183 49.8917C31.945 49.7153 32.2098 49.1127 32.0627 48.5835C31.945 48.1278 31.5477 48.3336 31.2828 48.3189C30.1058 48.3042 28.914 48.3189 27.7222 48.3189Z" fill="#329CF1"/>
<path d="M0.367188 5.91163C0.367188 5.11787 0.367188 4.3388 0.367188 3.54503C0.367188 2.67776 0.661457 2.38378 1.51485 2.38378C3.28048 2.38378 5.0314 2.36908 6.79703 2.39848C7.28258 2.39848 7.47385 2.25149 7.415 1.76641C7.35615 1.29602 7.50328 0.86974 7.98882 0.693347C8.45966 0.502255 8.8275 0.708046 9.16591 1.04613C10.5196 2.41318 11.8879 3.78022 13.2563 5.14727C13.8301 5.72054 13.8301 6.19092 13.2563 6.7642C11.8879 8.14594 10.5048 9.51298 9.13648 10.8947C8.81278 11.2181 8.44495 11.3945 8.00354 11.2181C7.54742 11.0417 7.38557 10.6595 7.42971 10.1892C7.48856 9.65998 7.28258 9.49829 6.75289 9.51298C5.01669 9.54238 3.26577 9.52768 1.52956 9.52768C0.676176 9.52768 0.381897 9.2337 0.381897 8.36643C0.367184 7.52857 0.367188 6.7201 0.367188 5.91163ZM5.45809 4.2212C4.56056 4.2212 3.66303 4.2359 2.7655 4.2065C2.33881 4.1918 2.17696 4.3241 2.19168 4.76508C2.2211 5.52945 2.2211 6.30852 2.19168 7.07288C2.17696 7.52856 2.3241 7.67556 2.78022 7.67556C4.56056 7.66086 6.3409 7.67556 8.10653 7.66086C8.43023 7.66086 8.73922 7.67556 8.97464 7.92545C9.13649 8.10184 9.28362 8.07244 9.43075 7.91075C10.0046 7.32278 10.5931 6.7348 11.1817 6.16152C11.3582 5.98513 11.3288 5.85284 11.167 5.70584C10.5784 5.13257 10.0046 4.54459 9.41604 3.95661C9.28362 3.82432 9.1512 3.76552 8.98935 3.92721C8.7245 4.2212 8.37138 4.2212 8.01825 4.2212C7.17958 4.2065 6.32619 4.2212 5.45809 4.2212Z" fill="#329CF1"/>
<path d="M51.3205 9.5129C50.4524 9.5129 49.599 9.5423 48.7309 9.4982C48.1865 9.4688 47.9805 9.6158 48.0099 10.2038C48.054 10.9387 47.5832 11.365 46.9505 11.2621C46.7151 11.2327 46.5385 11.1004 46.3914 10.9534C44.9642 9.5276 43.537 8.10176 42.1097 6.66122C41.6389 6.19084 41.6536 5.69106 42.1392 5.20598C43.5517 3.78014 44.9642 2.369 46.3767 0.957854C46.7004 0.634468 47.0535 0.51687 47.4802 0.693262C47.9069 0.869655 48.0393 1.22244 48.0393 1.67812C48.0393 2.38369 48.054 2.38369 48.775 2.38369C50.4965 2.38369 52.218 2.38369 53.9542 2.38369C54.7782 2.38369 55.0871 2.69238 55.0871 3.51555C55.0871 5.14718 55.0871 6.77881 55.0871 8.42514C55.0871 9.21891 54.7782 9.5129 53.9836 9.5276C53.0714 9.5129 52.1886 9.5129 51.3205 9.5129ZM49.9374 7.66077C50.8349 7.66077 51.7324 7.64608 52.63 7.67547C53.0714 7.69017 53.2627 7.55788 53.2332 7.0875C53.2038 6.33783 53.2038 5.58816 53.2332 4.83849C53.2627 4.35341 53.1008 4.20642 52.6153 4.20642C50.8643 4.23582 49.0987 4.22112 47.3331 4.22112C46.9947 4.22112 46.671 4.20642 46.4208 3.94183C46.2443 3.75074 46.0971 3.83893 45.9647 3.98593C45.3909 4.5592 44.8318 5.13248 44.2579 5.69106C44.0667 5.88215 44.0814 6.01444 44.2726 6.19083C44.8465 6.74941 45.4203 7.32269 45.9794 7.89597C46.0971 8.01356 46.2443 8.13115 46.3914 7.95476C46.6857 7.63138 47.0682 7.64608 47.4655 7.64608C48.2895 7.67548 49.1134 7.66077 49.9374 7.66077Z" fill="#329CF1"/>
<path d="M33.0897 37.4575C33.058 37.4642 33.0489 37.4912 33.0489 37.5237C33.0484 38.5644 33.0347 39.6051 33.0636 40.6458C33.0783 41.1309 32.9165 41.2926 32.4309 41.2779C31.0037 41.2338 31.2244 41.4396 31.2097 40.0431C31.195 37.8823 31.2097 35.7068 31.2097 33.546C31.2097 32.8551 31.4304 32.5024 31.9159 32.3995C32.4162 32.2966 32.784 32.4877 33.0783 33.0903C33.8434 34.6191 34.6085 36.1478 35.3736 37.6618C35.4472 37.7941 35.4619 38.0293 35.6679 38.0293C35.8592 38.0293 35.8739 37.7941 35.9475 37.6618C36.6537 36.2507 37.36 34.8396 38.0662 33.4284C38.1545 33.2667 38.2281 33.105 38.3164 32.9433C38.5518 32.5024 38.9196 32.2966 39.4199 32.4142C39.9201 32.5318 40.1114 32.8992 40.1114 33.399C40.1114 35.7656 40.1114 38.1322 40.1114 40.4988C40.1114 40.6017 40.0967 40.7193 40.1114 40.8222C40.1408 41.1603 39.9643 41.2779 39.6553 41.2632C37.9779 41.2485 38.3164 41.4543 38.2869 39.9696C38.2747 39.2858 38.2828 38.6021 38.2859 37.8846C38.2868 37.6737 38.1165 37.5909 38.0221 37.7794C37.566 38.6908 37.0951 39.6169 36.639 40.5282C36.433 40.9398 36.1535 41.2338 35.6679 41.2338C35.1971 41.2338 34.9028 40.9251 34.7115 40.5282C34.2068 39.5197 33.702 38.5112 33.1973 37.5028C33.1794 37.4669 33.129 37.4491 33.0897 37.4575Z" fill="#329CF1"/>
<path d="M23.2771 37.0301C23.2771 35.8395 23.2771 34.6488 23.2771 33.4582C23.2771 32.6938 23.5861 32.3851 24.3365 32.3704C25.4989 32.3557 26.6465 32.3557 27.8089 32.3704C28.9418 32.3851 29.8835 33.076 30.2661 34.149C30.6192 35.1486 30.3249 36.3833 29.4862 37.0448C29.089 37.3535 29.1037 37.5446 29.3833 37.9121C29.9865 38.7499 30.3102 39.6907 30.3985 40.7197C30.4279 41.0871 30.3102 41.2929 29.9129 41.2488C29.8982 41.2488 29.8835 41.2488 29.8541 41.2488C28.6917 41.2782 28.6917 41.2782 28.3974 40.1905C28.2209 39.5437 27.8972 38.9851 27.4558 38.4707C26.9408 37.8827 26.3523 37.6181 25.5577 37.721C25.234 37.7651 25.1016 37.868 25.1163 38.1914C25.131 39.0292 25.1016 39.8818 25.131 40.7197C25.1457 41.1165 24.9986 41.2782 24.5866 41.2635C23.0417 41.2341 23.3065 41.4399 23.2918 39.9994C23.2624 39.0145 23.2771 38.015 23.2771 37.0301ZM26.5435 35.8836C26.9114 35.8689 27.2792 35.8983 27.6471 35.8689C28.162 35.8248 28.5152 35.4867 28.5299 35.0604C28.5446 34.6047 28.1767 34.2372 27.6323 34.2078C26.9261 34.1784 26.2051 34.2078 25.4989 34.1931C25.2487 34.1931 25.1457 34.296 25.1163 34.5459C24.9692 35.8101 25.0133 35.8836 26.2787 35.8836C26.367 35.8836 26.4553 35.8836 26.5435 35.8836Z" fill="#329CF1"/>
<path d="M15.3497 36.7509C15.3497 36.1482 15.335 35.5455 15.3497 34.9281C15.3792 33.517 16.4974 32.3851 17.9099 32.3558C18.5867 32.3411 19.2636 32.3411 19.9404 32.3558C21.1469 32.3851 22.1916 33.2965 22.427 34.4725C22.5153 34.8988 22.3976 35.1045 21.9267 35.0751C21.6913 35.0604 21.4559 35.0604 21.2057 35.0751C20.8673 35.0898 20.6172 35.031 20.4701 34.6636C20.3376 34.3255 19.9992 34.2079 19.6608 34.1932C19.1458 34.1785 18.6309 34.1638 18.1159 34.1932C17.5274 34.2226 17.1889 34.546 17.1742 35.1339C17.1448 36.2364 17.1448 37.3389 17.1742 38.4413C17.1889 39.0293 17.5126 39.3527 18.1012 39.3821C18.6309 39.4115 19.1606 39.3968 19.6902 39.3821C20.0434 39.3674 20.3524 39.2204 20.4848 38.8823C20.6025 38.5589 20.8379 38.5001 21.1322 38.5148C21.3382 38.5295 21.5295 38.5148 21.7354 38.5148C22.4711 38.5148 22.5594 38.6471 22.324 39.3674C21.9561 40.4992 20.9998 41.2195 19.808 41.2342C19.1606 41.2489 18.5279 41.2489 17.8805 41.2342C16.468 41.2048 15.3497 40.0729 15.3203 38.6618C15.335 38.0444 15.3497 37.3977 15.3497 36.7509Z" fill="#329CF1"/>
<path d="M17.981 15.5837C17.9222 10.3801 22.3657 5.80857 27.8686 5.89676C33.1508 5.97026 37.5354 10.4389 37.4618 15.7895C37.3883 21.0812 32.9301 25.5058 27.5302 25.4029C22.2627 25.3 17.9663 20.9489 17.981 15.5837ZM31.7971 16.2745C33.1807 17.4454 35.4717 17.8244 35.5497 16.0136C35.6492 13.7015 34.7627 11.3372 32.9889 9.7921C29.7225 6.94042 24.8523 7.14621 21.9684 10.2478C19.1283 13.318 19.3591 17.7998 21.3906 20.2427C21.4203 20.2783 21.4853 20.2761 21.5084 20.2359C21.5113 20.2309 21.5129 20.2258 21.514 20.2201C21.5434 20.0765 21.5862 19.9465 21.6006 19.8024C21.836 18.4941 22.4246 17.377 23.3956 16.4656C23.7193 16.1569 23.7341 15.9364 23.5869 15.5249C22.9395 13.8638 23.1897 12.3057 24.352 10.9534C25.4997 9.63041 26.9858 9.17473 28.6778 9.54222C31.4146 10.1449 32.8859 13.0113 31.7971 15.6278C31.7088 15.8483 31.547 16.0393 31.7971 16.2745ZM31.341 22.6394C32.2327 22.194 32.1601 20.9885 31.9484 20.0145C31.7715 19.2004 31.4116 18.4779 30.7672 17.8621C30.4876 17.5975 30.2816 17.5387 29.9138 17.7445C28.4571 18.5676 26.9711 18.5676 25.5144 17.7445C25.1466 17.5387 24.9406 17.5975 24.661 17.8621C23.5869 18.9057 23.3368 20.214 23.3368 21.6398C23.3368 22.0661 23.4839 22.316 23.8518 22.5071C26.3237 23.8153 28.825 23.8594 31.341 22.6394ZM27.795 11.2914C26.4267 11.2179 25.1907 12.3792 25.1171 13.8197C25.0436 15.2015 26.1765 16.3774 27.6626 16.4803C28.9868 16.5685 30.2375 15.3779 30.2963 13.9814C30.3699 12.585 29.237 11.3649 27.795 11.2914Z" fill="#329CF1"/>
</svg>
