<svg width="78" height="86" viewBox="0 0 78 86" fill="none" xmlns="http://www.w3.org/2000/svg">
<g clip-path="url(#clip0_98_13364)">
<path d="M1.07401 86C0.23332 85.4977 -0.0125809 84.7579 2.93388e-05 83.8016C0.132437 74.0329 6.66246 63.9194 16.5868 60.832C18.802 60.1447 20.9856 59.3608 23.1945 58.6483C23.4484 58.5832 23.6844 58.4617 23.8849 58.2929C24.0854 58.1241 24.2452 57.9122 24.3526 57.6731C25.0356 56.2334 25.7565 54.8127 26.4879 53.3961C26.7107 52.9758 26.6981 52.6353 26.3576 52.2654C25.2129 51.0326 24.26 49.6348 23.5308 48.1187C23.3206 47.6795 22.9928 47.6143 22.5745 47.6269C21.7044 47.6543 20.849 47.6269 20.0167 47.297C19.1048 46.9325 18.317 46.3131 17.7475 45.513C17.1781 44.7128 16.851 43.7656 16.8053 42.7846C16.7833 42.5336 16.7833 42.2811 16.8053 42.0301C16.9293 41.1431 16.6561 40.5862 15.8091 40.0944C14.2496 39.1949 13.4426 37.7384 13.4426 35.9141C13.4426 32.0259 13.3228 28.1377 13.4762 24.2538C13.7768 16.6183 16.9798 10.3467 22.9066 5.54853C28.0684 1.36823 34.0646 -0.432942 40.6619 0.0840791C47.2592 0.601101 52.8686 3.36485 57.3285 8.28076C61.7883 13.1967 63.9678 19.0625 63.9026 25.725C63.8711 28.9973 63.9026 32.2676 63.9026 35.54C63.9026 38.8123 61.782 40.8994 58.5285 40.9162C57.9144 40.9453 57.2991 40.9417 56.6853 40.9057C55.9119 40.83 55.7438 41.2587 55.6597 41.8893C55.4074 43.9457 54.8262 45.9483 53.9384 47.8203C53.2101 49.3655 52.2575 50.7947 51.1116 52.0616C50.6681 52.5407 50.5883 52.9506 50.9014 53.5475C51.6328 54.8989 52.3075 56.2797 52.9653 57.671C53.0718 57.9105 53.2311 58.1229 53.4313 58.2921C53.6315 58.4614 53.8673 58.5831 54.1213 58.6483C56.3575 59.3671 58.5895 60.0964 60.8047 60.874C69.6025 63.9657 74.613 70.3717 76.7777 79.2325C77.1296 80.7306 77.3164 82.2628 77.3347 83.8016C77.3557 84.7579 77.0888 85.4977 76.2586 86H1.07401ZM36.6959 40.8132C37.6102 40.8132 38.2554 40.7964 38.8964 40.8132C40.209 40.8702 41.4486 41.4328 42.3558 42.383C43.263 43.3333 43.7675 44.5976 43.7637 45.9114C43.7599 47.2251 43.2481 48.4865 42.3354 49.4315C41.4227 50.3765 40.1799 50.9318 38.867 50.9813C37.6648 51.0065 36.4627 50.9813 35.2605 50.9813C33.5791 50.9813 32.0785 50.3508 31.2672 48.9195C30.58 47.7026 29.7267 47.4903 28.5518 47.6269C28.4404 47.6395 28.3269 47.6164 28.2155 47.6269C27.9759 47.6564 27.6523 47.5008 27.5136 47.7362C27.3748 47.9716 27.6586 48.1881 27.791 48.3836C30.9436 53.0662 36.6056 55.3192 42.0406 53.7387C47.8098 52.0679 50.9224 47.8854 52.0132 42.1373C52.762 38.0989 53.2429 34.0155 53.4529 29.9137C53.5223 28.6695 53.5958 28.6527 52.3705 28.5076C45.9162 27.7258 40.1974 25.2794 35.3277 20.9415C35.0838 20.7136 34.7872 20.5497 34.4644 20.4646C34.1416 20.3795 33.8028 20.3758 33.4782 20.4539C30.6934 20.973 28.3101 22.234 26.4732 24.4072C25.7523 25.2584 25.1491 26.2147 24.4093 27.0491C23.8082 27.73 23.7347 28.4698 23.8145 29.3042C24.0415 31.6665 24.2034 34.0352 24.4682 36.3933C24.7066 38.7279 25.0665 41.0485 25.5464 43.3457C25.6767 43.9405 25.9331 44.1864 26.5657 44.1675C27.5997 44.1234 28.6359 44.1339 29.6699 44.1675C29.9027 44.1962 30.1386 44.1486 30.3421 44.0319C30.5456 43.9152 30.7057 43.7356 30.7985 43.5202C31.1415 42.843 31.6353 42.2535 32.242 41.7973C32.8487 41.3411 33.5521 41.0303 34.2979 40.8888C35.1722 40.7039 36.0759 40.8384 36.6959 40.8069V40.8132ZM19.4451 82.5847C24.4486 82.5847 29.4527 82.5847 34.4576 82.5847C34.7266 82.5847 35.0881 82.7192 35.2458 82.4712C35.4034 82.2232 35.0902 81.9752 34.9599 81.7461C33.6863 79.5078 32.0827 77.486 30.7019 75.317C28.1742 71.3881 26.0772 67.1984 24.4472 62.8202C24.2244 62.2149 23.9596 62.0804 23.3417 62.3011C21.5006 62.9589 19.6384 63.5621 17.7805 64.1695C16.0954 64.6896 14.4931 65.4475 13.0222 66.4204C7.60403 70.1279 4.6259 75.3296 3.66122 81.763C3.55193 82.4965 3.90291 82.6036 4.51451 82.6036C9.49347 82.5784 14.4703 82.5847 19.4451 82.5847ZM57.8077 82.5847H72.0657C73.9404 82.5847 73.8416 82.7171 73.5054 80.9265C72.1582 73.7197 68.436 68.2258 61.7147 65.0186C59.2936 63.8627 56.6454 63.2784 54.1318 62.3431C53.352 62.0531 53.0809 62.2549 52.8077 62.9736C51.335 66.9038 49.4838 70.6816 47.2802 74.2535C45.7228 76.8092 43.8334 79.1442 42.358 81.7524C42.2276 81.9815 41.9082 82.2001 42.0847 82.4796C42.2213 82.6898 42.5513 82.5805 42.7951 82.5805C47.8 82.5847 52.8042 82.5861 57.8077 82.5847ZM23.8209 21.9356C23.9434 21.8495 24.0613 21.7569 24.1739 21.6582C26.696 18.968 29.8086 17.4106 33.4509 16.8852C34.9221 16.675 36.221 16.7822 37.358 17.976C38.867 19.5607 40.7081 20.7502 42.6249 21.8095C45.8237 23.577 49.2705 24.5417 52.8749 25.0272C53.5054 25.1092 53.7703 24.8885 53.7156 24.2538C53.6631 23.7262 53.6421 23.2029 53.5874 22.6691C53.0031 17.0869 50.0607 13.2429 44.9052 11.1391C42.0952 9.99156 39.1129 10.1093 36.1432 10.3257C33.0701 10.5565 30.1694 11.8355 27.9264 13.9488C25.6833 16.0622 24.234 18.8816 23.8209 21.9356ZM58.6883 23.5161C60.4495 23.5161 60.3823 23.6548 60.1069 21.9734C60.0796 21.8095 60.0817 21.6393 60.0523 21.4753C57.9506 9.69101 46.74 1.84532 34.8717 3.86506C25.5485 5.45396 18.1609 13.2828 17.0912 22.7006C17.0281 23.2555 17.1479 23.5623 17.7826 23.5224C18.3124 23.4888 18.8438 23.4888 19.3736 23.5224C19.9537 23.5602 20.1239 23.3248 20.1723 22.7532C20.725 16.282 23.8482 11.448 29.6405 8.51405C34.6068 5.99199 39.9284 6.09077 45.1028 7.50733C52.0385 9.39887 56.6286 15.6094 57.133 22.4841C57.1961 23.3542 57.4588 23.6401 58.2679 23.5182C58.4078 23.507 58.5483 23.5063 58.6883 23.5161ZM44.5816 71.8345C44.5808 71.7436 44.559 71.6542 44.5178 71.5732C44.4766 71.4922 44.4171 71.4219 44.3441 71.3679C42.5226 69.5464 40.7053 67.7249 38.8922 65.9034C38.6106 65.6197 38.4109 65.6344 38.1356 65.9286C36.4332 67.7375 34.7175 69.5401 32.9885 71.3364C32.7006 71.6369 32.7153 71.8807 32.9213 72.2191C34.6426 75.0354 36.7043 77.6247 38.3542 80.4893C38.5412 80.8172 38.722 80.897 38.9406 80.5166C40.6051 77.6289 42.6963 75.0228 44.405 72.1623C44.4765 72.0446 44.5353 71.9164 44.5816 71.8345ZM50.1133 59.9976C50.0942 59.8908 50.0654 59.786 50.0271 59.6845C49.4092 58.4318 48.7885 57.1813 48.165 55.9329C47.9359 55.4747 47.7446 55.769 47.5471 55.9686C45.5126 58.1103 43.4971 60.275 41.4395 62.4062C41.0339 62.8265 41.0822 63.1229 41.4857 63.518C43.0032 65.0018 44.5031 66.5031 45.9855 68.0219C46.4059 68.4423 46.5677 68.3393 46.8031 67.8685C48.0026 65.5018 49.05 63.0609 49.9388 60.5609C50.0124 60.378 50.0523 60.1889 50.1133 59.9892V59.9976ZM27.2046 59.9514C27.2319 60.0691 27.2424 60.1616 27.2677 60.2309C28.1989 62.9261 29.3227 65.5509 30.6304 68.085C30.8069 68.436 30.9814 68.3645 31.1958 68.1376C32.6866 66.5459 34.1788 64.9563 35.6724 63.3688C35.9267 63.0997 35.8616 62.8875 35.6262 62.6542C33.5665 60.5987 31.511 58.5418 29.4597 56.4835C29.1109 56.1326 28.949 56.3322 28.7872 56.658C28.3164 57.6122 27.8372 58.5495 27.3643 59.51C27.3013 59.6445 27.2593 59.8127 27.2109 59.943L27.2046 59.9514ZM60.4117 31.5951V29.3252C60.4117 26.9482 60.4117 26.9692 58.0262 26.9776C57.3831 26.9776 57.1666 27.1731 57.1267 27.8288C56.9712 30.4181 56.8556 33.0095 56.5214 35.5862C56.2755 37.4925 56.3112 37.4967 58.2637 37.442C59.7812 37.4 60.3844 36.8115 60.4075 35.2731C60.4327 34.0457 60.418 32.8162 60.418 31.5867L60.4117 31.5951ZM16.9062 31.5782C16.9062 32.8645 16.8789 34.1486 16.9062 35.4328C16.9419 36.7842 17.5367 37.3706 18.8587 37.442C19.3883 37.4715 19.9201 37.442 20.4518 37.442C20.7923 37.442 20.9688 37.3159 20.9205 36.9355C20.5254 33.8355 20.3299 30.7165 20.1576 27.5976C20.1323 27.1142 19.8991 26.9776 19.464 26.9902C18.8503 27.0049 18.2345 27.0154 17.6208 26.9902C17.0765 26.9629 16.8768 27.1794 16.8873 27.7237C16.9251 29.0015 16.9083 30.2857 16.9083 31.5698L16.9062 31.5782ZM36.9292 47.5261C37.6501 47.4882 38.3794 47.5975 39.0898 47.3726C39.8338 47.1393 40.1743 46.6265 40.1638 45.8699C40.1638 45.149 39.8275 44.5984 39.1129 44.4512C37.7178 44.1665 36.2794 44.1665 34.8843 44.4512C34.1213 44.6047 33.7977 45.1826 33.8061 45.9393C33.789 46.2627 33.8843 46.5822 34.0758 46.8434C34.2673 47.1046 34.5433 47.2916 34.8569 47.3726C35.5379 47.5828 36.2378 47.4882 36.9313 47.5176L36.9292 47.5261ZM40.9225 57.6815C39.0667 57.7425 37.3916 57.8013 35.6871 57.6143C36.4711 58.5222 37.2991 59.3356 38.1188 60.1531C38.3101 60.3444 38.4908 60.3864 38.6884 60.1763C39.4135 59.4028 40.2016 58.7009 40.9288 57.6731L40.9225 57.6815ZM20.8469 40.9351C20.5065 40.9015 20.269 41.0107 20.2605 41.4248C20.2148 41.9816 20.2747 42.5421 20.4371 43.0767C20.5124 43.3176 20.6521 43.5334 20.8409 43.7008C21.0298 43.8682 21.2608 43.9808 21.509 44.0267C21.8053 44.0897 22.0323 44.0624 21.9671 43.6799C21.8347 42.9107 21.6876 42.1457 21.5468 41.3806C21.4816 40.9876 21.2189 40.8909 20.8532 40.9267L20.8469 40.9351Z" fill="#0F284D"/>
<path d="M69.0497 76.6684C68.9614 77.3767 68.6293 77.9294 67.9421 78.2026C67.2548 78.4759 66.5991 78.375 66.0968 77.8348C65.774 77.4535 65.4922 77.0393 65.2561 76.599C64.5347 75.3669 63.611 74.2649 62.5238 73.3393C62.2847 73.1442 62.0586 72.9336 61.8471 72.7087C61.1241 71.9311 61.0968 70.9475 61.763 70.2224C62.3935 69.552 63.3771 69.4847 64.1884 70.1131C65.9371 71.4683 67.3934 73.1634 68.4696 75.0963C68.7428 75.5818 69.0076 76.0715 69.0497 76.6684Z" fill="#0F284D"/>
<path d="M58.8396 68.1817C58.8454 68.5246 58.7489 68.8615 58.5624 69.1493C58.376 69.4371 58.1079 69.6629 57.7926 69.7977C57.4772 69.9325 57.1288 69.9703 56.7919 69.9062C56.455 69.8421 56.1448 69.6791 55.901 69.4379C55.6571 69.1968 55.4907 68.8884 55.4229 68.5522C55.355 68.216 55.389 67.8673 55.5203 67.5504C55.6516 67.2336 55.8743 66.9631 56.1601 66.7734C56.4458 66.5838 56.7816 66.4836 57.1246 66.4856C57.3487 66.4837 57.5711 66.5261 57.7788 66.6104C57.9865 66.6947 58.1755 66.8193 58.3349 66.9769C58.4943 67.1345 58.6209 67.3221 58.7075 67.5289C58.7941 67.7357 58.839 67.9575 58.8396 68.1817Z" fill="#0F284D"/>
</g>
<defs>
<clipPath id="clip0_98_13364">
<rect width="77.3304" height="86" fill="white"/>
</clipPath>
</defs>
</svg>
