<svg width="50" height="50" viewBox="0 0 50 50" fill="none" xmlns="http://www.w3.org/2000/svg">
<path d="M24.9826 0.693359C25.2335 0.693359 25.4772 0.777042 25.6753 0.931163L33.8036 7.25772C34.3545 7.68503 34.9002 8.11741 35.4536 8.54345C35.5272 8.59925 35.63 8.68166 35.6973 8.67025C35.8344 8.63602 35.7874 8.48766 35.7874 8.38496C35.7874 7.37057 35.7874 6.35618 35.7874 5.34179C35.7874 4.53155 36.1352 4.18666 36.9462 4.18539C38.6554 4.18539 40.365 4.18539 42.0751 4.18539C42.9229 4.18539 43.2605 4.52014 43.2618 5.36082C43.2618 8.27718 43.2694 11.1935 43.2554 14.1099C43.2424 14.2802 43.2742 14.4509 43.3476 14.605C43.4211 14.7592 43.5337 14.8915 43.6743 14.9886C45.3826 16.2997 47.0745 17.6336 48.7676 18.9625C49.5126 19.547 49.5507 20.1265 48.8857 20.796C47.8817 21.8104 46.8638 22.807 45.8687 23.8265C45.4677 24.236 45.045 24.4605 44.4726 24.2234C44.2188 24.1168 44.2188 24.2868 44.2188 24.4592C44.2188 24.9182 44.2188 25.3785 44.2188 25.8375C44.2188 27.7078 44.2188 29.5781 44.2188 31.4471C44.2188 32.1711 43.6629 32.6225 43.0041 32.4729C42.5218 32.3638 42.2578 31.9783 42.2578 31.3545C42.2578 28.6448 42.2426 25.9351 42.268 23.2255C42.2843 23.0021 42.2416 22.7783 42.144 22.5767C42.0464 22.3751 41.8975 22.2026 41.7121 22.0767C36.3315 17.8915 30.9615 13.6965 25.602 9.49191C24.9979 9.02022 24.9966 9.02022 24.3785 9.50332C19.0114 13.6944 13.6426 17.8826 8.2722 22.0678C7.86478 22.3848 7.72009 22.7094 7.72136 23.2191C7.73659 31.0629 7.73998 38.907 7.73152 46.7516C7.73152 47.4427 7.73152 47.4427 8.43466 47.4427C8.87761 47.4427 9.3231 47.4186 9.76479 47.4503C10.2065 47.482 10.3397 47.3425 10.3347 46.8949C10.3144 44.5973 10.3258 42.2985 10.3258 40.0009C10.3258 39.5254 10.3182 39.0499 10.3258 38.5744C10.3397 37.962 10.718 37.5676 11.2828 37.56C11.8717 37.5486 12.2816 37.948 12.2842 38.582C12.2918 41.3234 12.2842 44.0648 12.2842 46.8062C12.2842 47.4402 12.2842 47.4402 12.8972 47.4402C22.4747 47.4402 32.0525 47.4435 41.6309 47.4503C42.1017 47.4503 42.2553 47.3375 42.2502 46.8455C42.2274 44.151 42.2375 41.4578 42.2413 38.7633C42.2413 38.1293 42.5421 37.7337 43.0587 37.6577C43.7124 37.5613 44.201 38 44.201 38.719C44.201 40.763 44.201 42.8069 44.201 44.8509C44.201 45.5331 44.2289 46.2153 44.1921 46.8949C44.1667 47.3514 44.3419 47.4592 44.7658 47.449C45.8738 47.4237 46.9818 47.4402 48.0899 47.4414C48.7702 47.4414 49.1217 47.6367 49.2791 48.0932C49.6025 49.0235 48.1966 49.3764 47.2116 49.3764C31.8343 49.3766 16.4574 49.3795 1.08085 49.3852C0.721668 49.3852 0.608712 49.3028 0.648057 48.9465C0.686606 48.3588 0.772091 47.6552 1.33789 47.4916C1.49146 47.4472 1.66102 47.4298 1.84619 47.4338C2.92248 47.4579 4.00385 47.4414 5.07379 47.4402C5.75155 47.4402 5.75282 47.4402 5.75282 46.7732V24.7356C5.75282 24.6405 5.75282 24.5454 5.75282 24.4503C5.76424 24.2157 5.69063 24.1308 5.44567 24.2297C4.93799 24.4338 4.52803 24.2677 4.16757 23.8848C3.83123 23.5272 3.46951 23.195 3.13063 22.84C2.4033 22.0796 1.60705 21.3851 0.914656 20.5918C0.743409 20.3956 0.655672 20.1417 0.655672 19.8812C0.655672 19.648 0.721913 19.4154 0.88011 19.244C0.991702 19.1231 1.11454 19.0127 1.24712 18.9143C6.56003 14.7655 11.8708 10.6153 17.1795 6.46396C19.5464 4.61492 21.9172 2.77015 24.2919 0.92966C24.4895 0.776467 24.7325 0.693359 24.9826 0.693359ZM4.85041 21.7204C5.04158 21.9113 5.31859 21.8431 5.53434 21.6804C5.57702 21.6482 5.61999 21.6154 5.6627 21.5821L24.0003 7.25392C24.8544 6.58569 25.1197 6.58062 25.9548 7.2349L34.8241 14.1682C38.0301 16.6738 41.2349 19.181 44.4383 21.6899C44.743 21.9308 44.9384 21.9752 45.2176 21.6544C45.6156 21.2042 46.0394 20.7774 46.4869 20.3763C46.7838 20.1087 46.8194 19.9122 46.4564 19.6979C46.3775 19.6448 46.3021 19.5868 46.2305 19.5242L25.5766 3.37135C24.9852 2.9098 24.9902 2.9098 24.3861 3.38276L8.52096 15.7862C6.85068 17.0998 5.18294 18.4058 3.50251 19.6992C3.19663 19.935 3.17632 20.0796 3.4657 20.3497C3.94546 20.7871 4.38842 21.2626 4.85041 21.7204ZM41.1049 12.9533C41.1654 13.0003 41.2882 12.9921 41.2882 12.9155C41.2882 10.7776 41.2882 8.64109 41.2996 6.50327C41.2996 6.19134 41.1397 6.13936 40.8808 6.14062C39.9783 6.14823 39.0772 6.15584 38.1761 6.14062C37.827 6.13428 37.7458 6.28898 37.7521 6.59963C37.7661 7.31097 37.8321 8.03499 37.7395 8.73492C37.5846 9.89766 37.9146 10.7637 38.9807 11.3039C39.0338 11.3385 39.0835 11.3779 39.1292 11.4218L41.1049 12.9533Z" fill="#329CF1"/>
<path d="M25.1169 21H33.9506C34.8936 21 35.2071 21.3119 35.2071 22.249C35.2071 28.1603 35.2071 34.0708 35.2071 39.9805C35.2071 40.9162 34.8923 41.2269 33.9468 41.2269H16.2324C15.3211 41.2269 15 40.9074 15 40.0008C15 34.0742 15 28.1476 15 22.2211C15 21.3183 15.3224 21 16.2362 21H25.1169ZM20.5477 22.9679C19.5196 22.9679 18.4903 22.9806 17.461 22.9679C17.098 22.9616 16.9533 23.0617 16.9609 23.4497C16.977 25.525 16.977 27.6011 16.9609 29.6781C16.9609 30.0344 17.0878 30.1434 17.4305 30.1409C19.5044 30.1291 21.5775 30.1291 23.6497 30.1409C23.9923 30.1409 24.1256 30.0445 24.1231 29.6832C24.1104 27.591 24.1104 25.4988 24.1231 23.4066C24.1231 23.0732 24.0038 22.9654 23.6776 22.9692C22.6356 22.9768 21.591 22.9679 20.5452 22.9679H20.5477ZM29.7038 30.1282C30.7192 30.1282 31.7345 30.1181 32.7435 30.1282C33.0951 30.1282 33.2512 30.0534 33.2512 29.6553C33.2335 27.5796 33.2373 25.5026 33.2512 23.4269C33.2512 23.0795 33.1472 22.954 32.7905 22.9552C30.7166 22.9688 28.6436 22.9688 26.5714 22.9552C26.1906 22.9552 26.0865 23.0896 26.0891 23.4548C26.1026 25.514 26.1026 27.5741 26.0891 29.635C26.0891 30.004 26.1919 30.1422 26.5752 30.1308C27.6109 30.1143 28.6554 30.1282 29.7012 30.1282H29.7038ZM24.1193 35.7251C24.1193 34.6625 24.1117 33.6012 24.1193 32.5399C24.1193 32.2153 24.0203 32.0911 23.6839 32.0923C21.5787 32.1033 19.4731 32.1033 17.3671 32.0923C17.0523 32.0923 16.9558 32.2191 16.9571 32.5158C16.9656 34.6232 16.9656 36.731 16.9571 38.8393C16.9571 39.1423 17.0548 39.2628 17.3683 39.2615C19.4735 39.2522 21.5792 39.2522 23.6852 39.2615C24.0228 39.2615 24.1243 39.1347 24.1193 38.8127C24.1104 37.7856 24.1193 36.7547 24.1193 35.7276V35.7251ZM29.6632 39.2577C30.709 39.2577 31.7536 39.2488 32.7981 39.2577C33.1218 39.2577 33.2474 39.1601 33.2462 38.8228C33.2352 36.7154 33.2352 34.6076 33.2462 32.4994C33.2462 32.1849 33.1256 32.0873 32.8235 32.0885C30.7183 32.097 28.6127 32.097 26.5066 32.0885C26.2046 32.0885 26.0827 32.1849 26.084 32.4994C26.0925 34.6067 26.0925 36.7146 26.084 38.8228C26.084 39.1601 26.2109 39.2628 26.5308 39.2577C27.5741 39.2488 28.6186 39.2577 29.6632 39.2577Z" fill="#329CF1"/>
<path d="M-nan -nanL10.3282 34.7996C10.3322 34.6069 10.393 34.4196 10.5029 34.2613C10.6129 34.1029 10.7672 33.9804 10.9465 33.9092C11.1258 33.8379 11.3221 33.8211 11.511 33.8608C11.6998 33.9004 11.8727 33.9949 12.0081 34.1322C12.1435 34.2695 12.2353 34.4437 12.2721 34.6329C12.3089 34.8222 12.2891 35.018 12.215 35.196C12.141 35.3741 12.0161 35.5263 11.8559 35.6337C11.6956 35.7412 11.5073 35.799 11.3143 35.8001C11.0509 35.7977 10.7991 35.6911 10.6142 35.5035C10.4293 35.316 10.3265 35.0629 10.3282 34.7996L-nan -nanZ" fill="#329CF1"/>
<path d="M-nan -nanL43.241 36.2894C43.0474 36.2913 42.8576 36.236 42.6954 36.1304C42.5332 36.0248 42.4059 35.8736 42.3296 35.6959C42.2532 35.5182 42.2312 35.3218 42.2662 35.1316C42.3013 34.9414 42.392 34.7658 42.5267 34.627C42.6615 34.4881 42.8344 34.3922 43.0236 34.3513C43.2128 34.3104 43.4099 34.3263 43.5901 34.3971C43.7703 34.4678 43.9255 34.5903 44.0361 34.749C44.1468 34.9077 44.208 35.0955 44.212 35.2889C44.2183 35.4194 44.1977 35.5497 44.1515 35.6719C44.1053 35.7941 44.0345 35.9056 43.9435 35.9993C43.8525 36.0931 43.7432 36.1672 43.6224 36.2171C43.5016 36.267 43.3718 36.2916 43.241 36.2894L-nan -nanZ" fill="#329CF1"/>
</svg>
