<svg width="55" height="55" viewBox="0 0 55 55" fill="none" xmlns="http://www.w3.org/2000/svg">
<path d="M55.0009 40.9364C55.0009 42.6125 55.0009 44.2997 55.0009 45.9758C54.457 46.2089 53.8576 46.2533 53.2804 46.3754C52.9474 46.442 52.792 46.6307 52.6255 46.9193C52.1815 47.6741 52.2481 48.3179 52.8475 48.9394C52.9807 49.0837 53.0584 49.2724 53.1805 49.4278C53.4469 49.7386 53.3692 49.9828 53.0917 50.2492C52.2703 51.0484 51.4711 51.8698 50.6609 52.669C49.7174 53.5903 50.006 53.6014 48.9515 52.8355C48.2966 52.3582 47.7194 52.1584 46.9646 52.6024C46.6427 52.7911 46.4318 52.9576 46.3541 53.3239C46.2431 53.8789 46.1987 54.4561 45.9767 54.9889C31.5246 54.9889 17.0726 54.9889 2.6205 54.9889C2.6205 53.2684 2.6205 51.559 2.6205 49.8385C2.6205 40.6145 2.6205 31.3794 2.6316 22.1554C2.6316 21.556 2.50951 21.2008 1.91011 20.9122C0.666923 20.2906 0.0342285 19.2028 0.0120287 17.7931C0.000928834 17.0272 0.0231286 16.2614 0.000928834 15.4844C-0.0101711 15.0626 0.0786281 14.6741 0.245127 14.2856C1.17752 12.0656 2.02111 9.79011 3.0534 7.61453C4.09679 5.43895 4.67399 3.21897 4.41869 0.799193C4.41869 0.776993 4.41869 0.765893 4.41869 0.743693C4.42979 0.0110999 4.42979 0.0110999 5.17348 0.0110999C10.0241 0.0110999 14.8637 0.0110999 19.7143 0.0110999C26.2411 0.0110999 32.7678 0.0110999 39.2946 0C39.8274 0 40.0272 0.144299 40.0161 0.699294C39.9828 1.66498 40.0161 2.63068 40.005 3.59637C39.9939 4.09586 40.0938 4.53986 40.2825 4.99495C41.3369 7.48133 42.3026 10.0121 43.4237 12.4541C44.2007 14.1413 44.5337 15.8396 44.4227 17.6932C44.3339 19.2361 43.679 20.3572 42.3026 21.0232C41.9252 21.2119 41.7809 21.4339 41.7809 21.8446C41.792 24.9748 41.792 28.1049 41.7809 31.2351C41.7809 31.7124 41.9474 31.9122 42.4358 31.9011C43.4015 31.8789 44.3672 31.9122 45.3329 31.89C45.8324 31.8789 46.1099 32.001 46.1543 32.5449C46.1876 32.9112 46.3097 33.2775 46.3652 33.6438C46.4207 33.9879 46.5761 34.2321 46.9424 34.332C47.1533 34.3875 47.342 34.4763 47.5418 34.5762C47.8304 34.7316 48.0857 34.6983 48.341 34.5096C48.7184 34.2432 49.118 33.999 49.4954 33.7326C49.7396 33.5661 49.9283 33.555 50.1503 33.777C51.1604 34.7982 52.1704 35.8083 53.1805 36.8184C53.4025 37.0404 53.3803 37.2402 53.2138 37.4733C52.9363 37.8729 52.681 38.2835 52.4035 38.672C52.2481 38.9051 52.2148 39.1271 52.348 39.3713C52.4479 39.5822 52.5589 39.7931 52.6144 40.0151C52.7143 40.3703 52.9474 40.5257 53.3026 40.5923C53.8798 40.6811 54.4348 40.8254 55.0009 40.9364ZM34.3551 39.8042C34.7325 39.3269 34.7658 38.894 34.3773 38.4278C34.1775 38.1948 34.0554 37.9062 33.8667 37.6731C33.5226 37.2735 33.5448 36.9627 33.9555 36.5964C34.6437 35.9748 35.2764 35.2866 35.9424 34.6317C36.1866 34.3875 36.3087 34.1322 36.3087 33.777C36.2976 29.8254 36.2976 25.8739 36.3087 21.9223C36.3087 21.4894 36.1866 21.3007 35.7204 21.334C34.7214 21.4117 33.8445 21.1009 33.123 20.4238C32.8899 20.2018 32.7456 20.2684 32.5347 20.446C31.1361 21.6337 29.3491 21.6781 27.9172 20.5237C27.5842 20.2573 27.3955 20.3017 27.0958 20.5459C25.6972 21.667 23.8768 21.6226 22.5226 20.4571C22.2895 20.2573 22.1452 20.224 21.901 20.4349C20.4913 21.6337 18.7043 21.667 17.2835 20.5237C16.9616 20.2573 16.7729 20.2906 16.4621 20.5348C15.0524 21.6559 13.2431 21.6226 11.8889 20.446C11.6225 20.2129 11.4671 20.2462 11.2229 20.4571C10.5902 21.0232 9.83544 21.3451 8.96965 21.3118C8.18155 21.2785 8.09275 21.1897 8.09275 22.1998C8.09275 29.8365 8.09275 37.4733 8.09275 45.11C8.09275 45.2543 8.10385 45.3986 8.09275 45.5429C8.08165 45.8759 8.22595 46.0535 8.57005 46.0313C8.71435 46.0313 8.85865 46.0202 9.00294 46.0313C9.50244 46.0868 9.71334 45.8759 9.70224 45.3542C9.68004 44.5328 9.69114 43.7114 9.70224 42.89C9.70224 42.4127 9.72444 41.9243 9.75774 41.447C9.90204 39.3491 11.012 37.9949 12.9767 37.3512C14.6417 36.8073 16.3289 36.3411 18.005 35.8305C18.2048 35.775 18.5045 35.7528 18.5267 35.5197C18.5711 34.9314 18.7709 34.332 18.2714 33.7992C17.3279 32.8002 16.8395 31.5903 16.8506 30.2028C16.8506 29.2704 16.8617 28.338 16.8506 27.4167C16.8395 26.8729 16.9505 26.3512 17.117 25.8406C17.8829 23.4652 20.4358 21.8113 22.7779 22.1665C25.5862 22.5994 27.5509 24.7528 27.5731 27.4278C27.5842 28.3713 27.5731 29.3259 27.5731 30.2694C27.5731 31.5237 27.1735 32.6448 26.3521 33.5661C25.9414 34.0212 25.8193 34.4874 25.8304 35.0646C25.8304 35.5197 25.9858 35.7306 26.4187 35.8638C28.0837 36.3411 29.7376 36.8517 31.4025 37.3512C32.5902 37.7064 33.4893 38.4167 34.1109 39.4934C34.1553 39.6044 34.1886 39.7376 34.3551 39.8042ZM36.6528 53.0242C35.9202 52.2916 35.2209 51.6034 34.5216 50.9152C33.4782 49.8718 33.4782 49.8718 34.2774 48.6509C34.3995 48.4733 34.677 48.2846 34.5327 48.0515C34.3995 47.8406 34.0998 47.9516 33.8778 47.9516C24.9757 47.9516 16.0736 47.9516 7.16036 47.9516C6.15027 47.9516 6.15027 47.9516 6.15027 46.9193C6.15027 38.3946 6.15027 29.8587 6.15027 21.334C6.15027 21.0565 6.29457 20.6791 6.03927 20.5348C5.81728 20.4127 5.60638 20.7901 5.36218 20.8789C5.31778 20.9011 5.27338 20.9455 5.21788 20.9566C4.64069 21.112 4.54079 21.5005 4.54079 22.0444C4.55189 32.1342 4.55189 42.2129 4.55189 52.3027C4.55189 53.1352 4.55189 53.1352 5.38438 53.1352C15.5741 53.1352 25.7638 53.1352 35.9646 53.1352C36.1644 53.1463 36.3753 53.1907 36.6528 53.0242ZM49.6064 50.9485C49.6619 50.9263 49.7174 50.9152 49.7507 50.8819C50.1503 50.5045 50.6609 50.1826 50.8829 49.6831C51.0494 49.2946 50.5388 48.9949 50.3612 48.6287C50.3168 48.551 50.2724 48.4733 50.2169 48.4067C50.006 48.1514 50.0393 47.9072 50.1947 47.6186C50.4389 47.1857 50.7386 46.7417 50.8274 46.2644C51.0494 45.1988 51.5488 44.5328 52.7143 44.5439C52.9585 44.5439 53.0917 44.3885 53.125 44.1332C53.347 42.7568 53.1916 42.5126 51.8485 42.224C51.793 42.2129 51.7486 42.1907 51.6931 42.1796C51.3935 42.1463 51.238 41.9798 51.1493 41.6801C51.0161 41.2028 50.9162 40.6811 50.6387 40.2704C50.0171 39.338 49.9172 38.5055 50.7608 37.6731C50.8829 37.551 50.9828 37.3623 50.8274 37.1958C50.4611 36.7851 50.1281 36.2745 49.6286 36.0636C49.2401 35.8971 48.9404 36.4188 48.5741 36.5853C48.4964 36.6186 48.4187 36.6741 48.3521 36.7296C48.1079 36.9294 47.8859 36.9072 47.6195 36.7518C47.1866 36.5076 46.7426 36.2079 46.2653 36.1191C45.1775 35.8971 44.5004 35.3865 44.5115 34.1988C44.5115 33.8991 44.3006 33.7881 44.0009 33.777C42.5135 33.6771 42.5135 33.6771 42.1805 35.109C42.1694 35.1423 42.1583 35.1756 42.1583 35.2089C42.125 35.5419 41.9363 35.6973 41.6255 35.7861C41.0927 35.9304 40.5156 36.0303 40.0716 36.3522C39.2169 36.9627 38.4621 36.9405 37.7184 36.2079C37.452 35.9415 37.2189 35.997 36.9414 36.2634C35.898 37.2846 35.8869 37.2846 36.6861 38.5166C36.8748 38.8163 36.8859 39.0494 36.7083 39.3491C36.4641 39.782 36.1755 40.226 36.0756 40.7033C35.8647 41.7578 35.3763 42.4016 34.2219 42.3905C33.9888 42.3905 33.8001 42.5126 33.7557 42.8123C33.5448 44.1998 33.6891 44.4329 35.0322 44.7215C35.0544 44.7215 35.0655 44.7326 35.0877 44.7326C35.4873 44.7437 35.6871 44.9657 35.787 45.3431C35.9313 45.8759 36.0423 46.442 36.3642 46.8971C36.9636 47.7185 36.9081 48.44 36.2088 49.1614C35.9424 49.4389 35.9535 49.6831 36.2532 49.9828C37.2744 51.0151 37.2633 51.0373 38.4732 50.2492C38.784 50.0494 39.0393 50.0383 39.3501 50.227C39.8052 50.4823 40.2603 50.782 40.7598 50.8708C41.8031 51.0706 42.3581 51.5923 42.3692 52.6801C42.3692 53.0131 42.6023 53.1463 42.9464 53.1574C44.4116 53.2129 44.4116 53.224 44.7224 51.8254C44.7224 51.8032 44.7335 51.7921 44.7335 51.7699C44.7446 51.4147 44.9555 51.2482 45.2885 51.1594C45.9656 50.9818 46.6427 50.782 47.2199 50.3935C47.8082 49.9939 48.2855 50.0383 48.7961 50.4823C49.0514 50.6821 49.2956 50.8708 49.6064 50.9485ZM22.1674 46.0646C23.7436 46.0646 25.3198 46.0535 26.8849 46.0757C27.3178 46.0757 27.4954 45.9314 27.4843 45.4874C27.4621 44.6105 27.4732 43.7336 27.4843 42.8567C27.4954 41.5247 27.2956 41.7023 28.6831 41.6579C29.2381 41.6357 29.3935 41.8577 29.3824 42.3794C29.3602 43.4117 29.3935 44.4551 29.3713 45.4874C29.3602 45.9314 29.5378 46.0979 29.9706 46.0757C30.4035 46.0535 30.8364 46.0424 31.2582 46.0757C31.7355 46.1201 31.9131 45.9758 31.902 45.4652C31.8687 44.1443 31.8909 42.8234 31.8909 41.4914C31.8909 41.1806 31.9131 40.9253 32.3016 40.8476C32.6013 40.7921 32.5458 40.6034 32.4348 40.4036C32.0685 39.7598 31.5024 39.3713 30.8142 39.1604C29.1049 38.6387 27.3844 38.1392 25.6861 37.6176C25.3087 37.5066 25.0423 37.5732 24.7759 37.8396C24.0655 38.5721 23.3218 39.2714 22.6225 40.004C22.3339 40.3037 22.123 40.3037 21.8344 40.004C21.124 39.2714 20.3914 38.561 19.681 37.8396C19.4701 37.6287 19.2481 37.4733 18.9263 37.5732C17.0615 38.1392 15.1856 38.672 13.343 39.2825C12.344 39.6155 11.7557 40.3925 11.7113 41.4581C11.6558 42.8123 11.7002 44.1776 11.6891 45.5318C11.6891 45.9314 11.8778 46.0646 12.2552 46.0535C12.9878 46.0424 13.7204 46.0313 14.453 46.0535C14.9081 46.0646 15.0968 45.9092 15.0857 45.4319C15.0635 44.5883 15.0746 43.7558 15.0857 42.9122C15.0968 41.4692 14.9081 41.669 16.3844 41.6246C16.8728 41.6135 16.9949 41.8022 16.9838 42.2573C16.9616 43.3118 16.9949 44.3663 16.9727 45.4208C16.9616 45.887 17.1281 46.0535 17.5943 46.0424C19.0928 46.0535 20.6245 46.0646 22.1674 46.0646ZM18.7487 28.8597C18.7487 29.3259 18.7376 29.7921 18.7487 30.2472C18.8042 32.1897 20.3026 33.6438 22.234 33.6216C24.1321 33.6105 25.6306 32.1453 25.6639 30.2361C25.675 29.3037 25.6861 28.3824 25.6639 27.45C25.6306 25.5631 24.1099 24.0646 22.234 24.0313C20.3914 23.998 18.8153 25.5298 18.7598 27.3945C18.7376 27.894 18.7487 28.3713 18.7487 28.8597ZM22.1785 3.55197C25.6861 3.55197 29.1937 3.55197 32.6901 3.55197C34.2774 3.55197 35.8758 3.55197 37.4631 3.55197C37.674 3.55197 37.9515 3.62967 38.0403 3.37437C38.1735 2.96367 38.1846 2.50858 38.0514 2.10898C37.9404 1.76488 37.5519 1.90918 37.2855 1.90918C28.9162 1.89808 20.5468 1.90918 12.1775 1.90918C10.4459 1.90918 8.70325 1.90918 6.97166 1.90918C6.78297 1.90918 6.52767 1.83148 6.41667 2.02018C6.18357 2.43088 6.27237 2.89707 6.35007 3.31887C6.40557 3.64077 6.76077 3.54087 6.99386 3.54087C12.0554 3.55197 17.117 3.55197 22.1785 3.55197ZM21.2572 9.83451C21.2572 8.56912 21.2461 7.29263 21.2683 6.02724C21.2794 5.58325 21.1018 5.41675 20.6689 5.43895C20.2915 5.46115 19.9141 5.43895 19.5478 5.43895C18.6488 5.43895 18.6377 5.43895 18.56 6.34914C18.3602 8.79112 18.1826 11.222 17.9717 13.664C17.9384 14.0525 18.0494 14.1857 18.4268 14.1746C19.1815 14.1635 19.9252 14.1524 20.68 14.1746C21.124 14.1857 21.2794 14.0192 21.2794 13.5752C21.2461 12.3431 21.2572 11.0888 21.2572 9.83451ZM23.1553 9.82341C23.1553 11.0777 23.1664 12.3209 23.1442 13.5752C23.1331 14.0525 23.3107 14.2079 23.7769 14.1857C24.5095 14.1635 25.2421 14.1635 25.9747 14.1857C26.341 14.1968 26.4853 14.0747 26.4409 13.6862C26.341 12.6428 26.2744 11.5883 26.1967 10.5449C26.0635 9.01312 25.9192 7.49243 25.7971 5.96065C25.7638 5.57215 25.5862 5.43895 25.2199 5.45005C24.7426 5.47225 24.2542 5.47225 23.7769 5.45005C23.3107 5.42785 23.1553 5.61655 23.1553 6.08274C23.1775 7.31483 23.1553 8.56912 23.1553 9.82341ZM35.1987 14.1746C35.5761 14.1746 35.9535 14.1635 36.3198 14.1746C36.6861 14.1857 36.8082 14.0636 36.6861 13.6973C35.8092 11.0888 34.9434 8.48032 34.0776 5.87185C33.9666 5.54995 33.7779 5.41675 33.4449 5.42785C32.9787 5.43895 32.5125 5.42785 32.0574 5.42785C31.4469 5.42785 31.4025 5.47225 31.5579 6.08274C32.0907 8.24722 32.6124 10.4228 33.1785 12.5762C33.678 14.5076 33.2007 14.1302 35.1987 14.1746ZM9.22494 14.1746C9.56904 14.1746 9.90204 14.1524 10.2461 14.1857C10.6901 14.219 10.8899 14.0414 10.9787 13.6085C11.1452 12.8204 11.3672 12.0434 11.5559 11.2664C11.9999 9.51261 12.4328 7.75883 12.8768 6.01614C12.9878 5.59435 12.899 5.41675 12.4328 5.43895C11.9333 5.47225 11.4338 5.45005 10.9343 5.43895C10.6124 5.42785 10.4348 5.57215 10.346 5.87185C10.1795 6.41574 9.97974 6.95964 9.80214 7.50353C9.12504 9.53481 8.44795 11.5772 7.75976 13.6085C7.61546 14.0192 7.65986 14.219 8.14825 14.1857C8.50345 14.1635 8.85865 14.1746 9.22494 14.1746ZM3.99689 14.1746C4.37429 14.1746 4.75168 14.1635 5.11798 14.1746C5.43988 14.1857 5.60638 14.0414 5.70628 13.7528C6.57207 11.1221 7.44896 8.50252 8.33695 5.88295C8.43685 5.58325 8.38135 5.43895 8.03725 5.45005C7.48226 5.46115 6.92726 5.46115 6.37227 5.45005C6.10587 5.45005 5.93937 5.57215 5.83947 5.81635C4.74058 8.46922 3.63059 11.1221 2.52061 13.775C2.38741 14.0969 2.49841 14.1968 2.8092 14.1857C3.2088 14.1746 3.5973 14.1746 3.99689 14.1746ZM40.4157 14.1746C40.7043 14.1746 40.9817 14.1746 41.2703 14.1746C42.0473 14.1746 42.0584 14.1746 41.7476 13.4309C40.8707 11.333 40.005 9.24621 39.1281 7.14833C38.4066 5.41675 38.4066 5.42785 36.5529 5.43895C36.0645 5.43895 35.9757 5.57215 36.1311 6.02724C36.8859 8.23612 37.6074 10.4672 38.3622 12.6761C38.9838 14.5076 38.5065 14.1302 40.4157 14.1746ZM38.229 20.3461C38.2179 20.557 38.1957 20.6569 38.1957 20.7679C38.1957 25.0192 38.1957 29.2815 38.1957 33.5328C38.1957 33.6882 38.1957 33.8547 38.2401 34.0101C38.3622 34.443 38.6841 34.6872 39.1059 34.6539C39.5388 34.6206 39.8829 34.4097 39.8496 33.8658C39.8163 33.4773 39.8496 33.0777 39.8496 32.6892C39.8496 29.0928 39.8496 25.5076 39.8496 21.9112C39.8496 21.6559 39.9384 21.3229 39.6276 21.1897C39.1503 20.9788 38.7285 20.6791 38.229 20.3461ZM14.342 14.1746C14.6417 14.1746 14.9525 14.1746 15.2522 14.1746C15.9737 14.1746 16.0181 14.1524 16.0847 13.442C16.2845 11.1443 16.4732 8.85772 16.6397 6.56004C16.7174 5.42785 16.6841 5.45005 15.563 5.42785C15.0857 5.41675 14.897 5.61655 14.7971 6.04944C14.6084 6.88194 14.3864 7.71443 14.1866 8.54692C13.7648 10.2452 13.3541 11.9435 12.9101 13.6418C12.7991 14.0525 12.899 14.2079 13.3208 14.1746C13.6649 14.1635 13.9979 14.1746 14.342 14.1746ZM29.9817 14.1746C30.3258 14.1746 30.6588 14.1635 31.0029 14.1746C31.458 14.1968 31.6134 14.0636 31.4913 13.5752C30.8475 11.0555 30.2259 8.52472 29.5822 5.99395C29.5267 5.77195 29.5045 5.48335 29.2159 5.47225C28.7386 5.45005 28.2502 5.33905 27.7951 5.53885C27.673 5.59435 27.7063 5.74975 27.7174 5.88295C27.9283 8.41372 28.1392 10.9334 28.339 13.4642C28.3834 13.9748 28.5721 14.2634 29.1382 14.1857C29.4046 14.1524 29.6932 14.1746 29.9817 14.1746ZM8.94745 16.0727C8.94745 16.0727 8.94745 16.0838 8.94745 16.0727C8.50345 16.0727 8.05945 16.0727 7.61546 16.0727C7.32686 16.0727 7.18256 16.2059 7.19366 16.4944C7.19366 17.0272 7.16036 17.56 7.27136 18.0928C7.43786 18.892 8.03725 19.4137 8.83645 19.447C9.69114 19.4803 10.3349 19.0141 10.5569 18.2149C10.7123 17.671 10.6235 17.116 10.6457 16.5721C10.6679 16.2059 10.4903 16.0616 10.1351 16.0727C9.72444 16.0838 9.33594 16.0727 8.94745 16.0727ZM42.5135 17.2492C42.5246 17.0716 42.5024 16.894 42.5246 16.7164C42.5801 16.217 42.347 16.0616 41.8697 16.0727C41.1371 16.106 40.4046 16.0949 39.672 16.0727C39.2835 16.0616 39.117 16.2281 39.1281 16.6165C39.1392 17.0494 39.117 17.4712 39.1392 17.9041C39.1947 18.8032 39.894 19.447 40.793 19.4581C41.7143 19.4692 42.4358 18.8032 42.5024 17.893C42.5246 17.671 42.5135 17.4601 42.5135 17.2492ZM14.2088 16.0838C13.7981 16.0838 13.3874 16.0838 12.9767 16.0838C12.6659 16.0838 12.5216 16.2281 12.5216 16.5388C12.5327 17.005 12.4994 17.4712 12.5327 17.9263C12.5882 18.8032 13.3319 19.4581 14.2199 19.4581C15.1301 19.4581 15.8294 18.8143 15.8849 17.9152C15.9071 17.4712 15.8849 17.0272 15.896 16.5832C15.9071 16.2169 15.7295 16.0727 15.3743 16.0838C14.9969 16.0838 14.6084 16.0727 14.2088 16.0838ZM19.6144 16.0838C19.1815 16.0838 18.7598 16.0838 18.3269 16.0838C18.0161 16.0838 17.8607 16.2392 17.8607 16.5388C17.8607 16.9717 17.8496 17.3935 17.8718 17.8264C17.9273 18.8032 18.5711 19.447 19.5034 19.4581C20.4469 19.4692 21.1795 18.8143 21.2461 17.8597C21.2794 17.4157 21.2461 16.9717 21.2572 16.5166C21.2572 16.1948 21.0907 16.0727 20.791 16.0727C20.4025 16.0838 20.0029 16.0727 19.6144 16.0838ZM35.4873 16.0727C35.0766 16.0727 34.6659 16.0838 34.2552 16.0727C33.9111 16.0616 33.7668 16.2281 33.7779 16.561C33.789 16.9939 33.7557 17.4157 33.789 17.8486C33.8556 18.8032 34.5882 19.4581 35.5317 19.447C36.4641 19.4359 37.1079 18.8032 37.1634 17.8153C37.1856 17.4046 37.1745 16.9939 37.1745 16.5832C37.1856 16.2281 37.0302 16.0505 36.6639 16.0616C36.2754 16.0838 35.8869 16.0727 35.4873 16.0727ZM30.2259 16.0727C29.8374 16.0727 29.4379 16.0838 29.0494 16.0727C28.672 16.0616 28.4833 16.2059 28.4944 16.6054C28.5055 17.0383 28.4833 17.4601 28.5055 17.893C28.561 18.7921 29.227 19.4359 30.0927 19.4581C31.0251 19.4914 31.791 18.8587 31.8687 17.9596C31.9131 17.4823 31.8798 16.9939 31.8798 16.5166C31.8798 16.1948 31.7022 16.0838 31.4025 16.0838C31.014 16.0838 30.6255 16.0727 30.2259 16.0727ZM24.8425 16.0838C24.4318 16.0838 24.0211 16.0838 23.6104 16.0838C23.3329 16.0838 23.1664 16.1837 23.1664 16.4833C23.1664 16.9828 23.1331 17.4823 23.1775 17.9818C23.2663 18.8587 24.0211 19.4692 24.9202 19.4581C25.7971 19.4359 26.4742 18.8032 26.5297 17.9152C26.563 17.4712 26.5408 17.0272 26.5519 16.5721C26.563 16.2059 26.3743 16.0616 26.0191 16.0727C25.6306 16.0838 25.231 16.0727 24.8425 16.0838ZM3.5973 16.0838C3.1866 16.0838 2.7759 16.0838 2.36521 16.0838C2.05441 16.0838 1.89901 16.2059 1.89901 16.5277C1.91011 17.005 1.87681 17.4934 1.91011 17.9707C1.97671 18.8254 2.6982 19.4581 3.5751 19.4581C4.45199 19.4581 5.18458 18.8365 5.25118 17.9818C5.29558 17.5045 5.26228 17.0161 5.27338 16.5388C5.27338 16.2281 5.14018 16.0727 4.81828 16.0838C4.41869 16.0838 4.00799 16.0838 3.5973 16.0838ZM23.9323 35.7306C23.9878 35.3421 23.7658 35.3088 23.4439 35.3976C22.678 35.5974 21.901 35.5752 21.1129 35.442C20.9131 35.4087 20.6689 35.22 20.5246 35.4642C20.3803 35.7195 20.4802 35.9859 20.6911 36.1857C21.0907 36.5853 21.5014 36.9849 21.8899 37.3956C22.1119 37.6398 22.2895 37.6176 22.5115 37.3845C22.8889 36.9849 23.2885 36.5964 23.677 36.2079C23.8102 36.0858 23.9323 35.9526 23.9323 35.7306ZM37.7739 53.0131C37.785 53.0575 37.7961 53.1019 37.8183 53.1463C38.5509 53.1463 39.2946 53.1463 40.0272 53.1463C40.1826 53.1463 40.3824 53.1796 40.4046 52.9576C40.4268 52.78 40.2381 52.7467 40.116 52.6912C39.8607 52.5802 39.5943 52.4692 39.3279 52.3582C39.1614 52.2916 38.9949 52.225 38.8173 52.336C38.4732 52.558 38.1291 52.7911 37.7739 53.0131Z" fill="#329CF1"/>
<path d="M7.11505 51.9924C6.95965 51.9924 6.79315 51.9813 6.63775 51.9924C6.27146 52.0146 6.13826 51.7815 6.19376 51.4929C6.27146 51.0267 5.86076 50.3829 6.51565 50.1387C6.89305 49.9944 7.40364 49.9944 7.76994 50.1387C8.43593 50.3829 8.02524 51.0267 8.09184 51.4929C8.13624 51.7926 8.00304 52.0146 7.63674 51.9924C7.47024 51.9924 7.29265 51.9924 7.11505 51.9924Z" fill="#329CF1"/>
<path d="M10.6115 52.0035C10.3673 51.9258 9.93444 52.1922 9.80124 51.8037C9.63474 51.3153 9.66804 50.7825 9.80124 50.283C9.83454 50.172 9.94554 50.1387 10.0565 50.1276C10.1675 50.1165 10.2674 50.1165 10.3784 50.1054C11.6993 50.0721 11.6771 50.0721 11.666 51.3486C11.666 51.8592 11.4773 52.0701 10.9778 52.0035C10.8668 51.9924 10.7558 52.0035 10.6115 52.0035Z" fill="#329CF1"/>
<path d="M14.219 52.0036C13.2644 52.0036 13.2644 52.0036 13.2644 51.0934C13.2644 50.1055 13.2644 50.1055 14.2745 50.1055C15.2069 50.1055 15.2069 50.1055 15.2069 51.0601C15.1958 52.0036 15.1958 52.0036 14.219 52.0036Z" fill="#329CF1"/>
<path d="M43.3229 37.7402C46.8527 37.7291 49.6387 40.4042 49.7386 43.7674C49.7719 44.9773 49.4722 46.1317 48.8395 47.1973C48.6175 47.5747 48.4066 47.608 48.0847 47.3416C47.785 47.0863 47.3522 46.9198 47.1746 46.609C46.9637 46.2427 47.4076 45.9097 47.5408 45.5545C48.1624 43.9006 47.7184 41.9693 46.4198 40.7816C45.0434 39.5384 43.112 39.2498 41.4914 40.1267C41.003 40.3931 40.7144 40.3487 40.4702 39.8714C40.4591 39.8603 40.448 39.8381 40.4369 39.827C39.7154 38.8169 39.7265 38.7947 40.892 38.2841C41.7356 37.9178 42.5903 37.7069 43.3229 37.7402Z" fill="#329CF1"/>
<path d="M37.218 43.9672C37.218 42.7906 37.551 41.7139 38.1503 40.715C38.3279 40.4153 38.5166 40.3487 38.783 40.5818C38.8274 40.6151 38.8718 40.6484 38.9162 40.6706C39.8597 41.3254 39.8597 41.3254 39.4268 42.3799C38.7608 44.0116 39.2048 45.9652 40.4924 47.1529C41.8466 48.4072 43.8113 48.7069 45.4208 47.8633C45.9203 47.5969 46.1756 47.6191 46.4975 48.1075C47.2079 49.1731 47.219 49.1953 46.0424 49.6948C42.2351 51.3153 38.0949 49.1398 37.3179 45.0994C37.2402 44.722 37.2513 44.3335 37.218 43.9672Z" fill="#329CF1"/>
</svg>
