<svg width="56" height="44" viewBox="0 0 56 44" fill="none" xmlns="http://www.w3.org/2000/svg">
<path d="M0.585937 36.7963C0.585938 34.2562 1.03337 30.9884 3.57335 31.0136C6.31778 31.0421 9.06221 31.0278 11.8066 31.0136C12.5213 31.0136 12.5356 31.0135 12.5356 30.3138C12.5356 29.2285 12.65 29.3428 11.5636 29.3428C9.40526 29.3428 7.24688 29.3428 5.08851 29.3428C3.30177 29.3428 2.25832 28.3003 2.25832 26.5153C2.25832 18.6613 2.25832 10.8072 2.25832 2.95319C2.25832 1.1539 3.27319 0.154297 5.08851 0.154297C15.1943 0.154297 25.3143 0.154297 35.4201 0.154297C37.2354 0.154297 38.2646 1.19674 38.2789 3.01031C38.2789 3.89568 38.2932 4.79532 38.2789 5.68069C38.2789 6.02341 38.4075 6.15193 38.7506 6.15193C39.4224 6.13765 40.1085 6.13765 40.7803 6.15193C41.8238 6.16621 42.5528 6.8945 42.5528 7.95122C42.5528 12.4637 42.5671 16.9762 42.5528 21.503C42.5528 22.6026 41.8381 23.3023 40.7374 23.3451C40.0799 23.3594 39.4224 23.3594 38.7649 23.3451C38.3932 23.3309 38.2646 23.4879 38.2646 23.8449C38.2789 24.6875 38.2646 25.5157 38.2646 26.3582C38.2646 28.3289 37.2497 29.3428 35.3058 29.3428C33.0759 29.3428 30.8461 29.3571 28.6162 29.3285C28.1302 29.3285 27.9587 29.457 27.973 29.9568C28.0159 31.1135 27.8729 30.9993 29.0022 31.0136C32.69 31.0136 36.3778 31.0136 40.0799 31.0136C40.7946 31.0136 40.7946 30.9993 40.8089 30.2995C40.8089 29.7426 40.7946 29.1857 40.8232 28.6431C40.8518 27.9291 41.1948 27.5863 41.9095 27.5863C45.1971 27.5721 48.4704 27.5721 51.758 27.5863C52.5442 27.5863 52.8444 27.9148 52.8444 28.7145C52.8444 29.3142 52.8586 29.9283 52.8444 30.528C52.8301 30.8565 52.9587 30.9993 53.2732 31.085C54.7597 31.4562 55.4172 32.313 55.4172 33.8553C55.4172 36.0116 55.4172 38.1679 55.4172 40.3384C55.4172 41.795 54.6597 42.7375 53.2589 43.0374C53.0302 43.0802 52.8872 43.1516 52.7872 43.3801C52.6299 43.7657 52.3012 43.9227 51.8867 43.9227C51.4578 43.9085 51.029 43.9085 50.6002 43.9227C50.0713 43.937 49.6425 43.8371 49.4567 43.2659C49.3995 43.0945 49.2709 43.0659 49.1137 43.0659C48.9564 43.0659 48.7992 43.0659 48.6277 43.0659C34.8627 43.0659 21.0977 43.0659 7.33265 43.0659C6.93242 43.0659 6.51789 42.9803 6.36066 43.5515C6.30348 43.7942 6.01761 43.9085 5.74602 43.9085C5.14568 43.9227 4.53104 43.9227 3.9307 43.9085C3.65912 43.9085 3.38754 43.7942 3.30177 43.5657C3.14454 43.1088 2.7872 43.0517 2.40126 42.9517C0.724921 42.5137 0.585937 40.3024 0.585937 38.5697C0.585937 37.9789 0.585937 37.3878 0.585937 36.7963ZM20.2257 27.5863C25.2429 27.5863 30.2457 27.5863 35.2629 27.5863C36.3492 27.5863 36.5493 27.4007 36.5493 26.3154C36.5493 18.5899 36.5493 10.8644 36.5493 3.12456C36.5493 2.06783 36.3635 1.88219 35.2915 1.88219C25.2858 1.88219 15.28 1.88219 5.28862 1.88219C4.20228 1.88219 3.97359 2.11067 3.97359 3.19596C3.97359 10.8929 3.97359 18.5756 3.97359 26.2726C3.97359 27.3007 4.24517 27.5721 5.26004 27.5721C10.2343 27.5863 15.2229 27.5863 20.2257 27.5863ZM20.383 41.3095C26.1005 41.3095 31.8181 41.3095 37.5499 41.3238C38.0788 41.3238 38.2646 41.1667 38.2646 40.624C38.236 38.2536 38.2503 35.8831 38.2503 33.5126C38.2503 32.77 38.2503 32.77 37.507 32.77C26.172 32.77 14.8369 32.77 3.50188 32.77C2.51561 32.77 2.24403 33.0556 2.22973 34.0409C2.22973 35.9973 2.22973 37.968 2.22973 39.9243C2.22973 41.0953 2.44414 41.3095 3.58765 41.3095C9.19085 41.3238 14.7941 41.3238 20.383 41.3095ZM46.8552 37.8823C48.9564 37.8823 51.0576 37.8823 53.1588 37.8823C53.4876 37.8823 53.7449 37.868 53.7449 37.411C53.7306 36.1972 53.7449 34.9834 53.7306 33.7696C53.7163 33.0984 53.3732 32.77 52.6871 32.77C48.642 32.77 44.5968 32.77 40.5659 32.7557C40.1514 32.7557 39.9942 32.8842 40.0084 33.3126C40.0227 34.6121 40.037 35.9116 40.0084 37.2111C39.9942 37.7252 40.1514 37.8965 40.6803 37.8823C42.7243 37.868 44.7826 37.8823 46.8552 37.8823ZM38.2789 14.7343C38.2789 16.8192 38.2932 18.904 38.2646 20.9889C38.2646 21.4173 38.3789 21.6173 38.8363 21.5887C39.2938 21.5601 39.7655 21.5601 40.2229 21.5887C40.666 21.6173 40.8232 21.4459 40.8089 21.0032C40.7946 19.8037 40.8089 18.6184 40.8089 17.4189C40.8089 14.4629 40.7946 11.507 40.8232 8.53671C40.8232 8.06546 40.6946 7.83698 40.18 7.87982C39.7512 7.90838 39.3223 7.90838 38.8935 7.87982C38.3932 7.83698 38.2503 8.05118 38.2646 8.52242C38.2932 10.6073 38.2789 12.6779 38.2789 14.7343ZM46.8981 39.6244C44.8112 39.6244 42.7243 39.6387 40.6374 39.6102C40.1085 39.6102 39.9084 39.7672 39.9799 40.2813C39.9942 40.3813 39.9799 40.4955 39.9799 40.5955C39.9799 41.2952 39.9799 41.2952 40.7089 41.2952C44.6254 41.2952 48.5562 41.2952 52.4727 41.2952C52.6728 41.2952 52.8729 41.2952 53.0588 41.2524C53.5448 41.1524 53.7878 40.6383 53.7163 39.9529C53.6591 39.4102 53.2446 39.6102 52.973 39.6102C50.9576 39.6244 48.9278 39.6244 46.8981 39.6244ZM20.2257 31.0136C21.9696 31.0136 23.7277 31.0136 25.4716 31.0136C26.2577 31.0136 26.2577 31.0136 26.2577 30.2139C26.2577 30.1568 26.2577 30.1139 26.2577 30.0568C26.2577 29.3428 26.2577 29.3428 25.543 29.3428C22.1411 29.3428 18.7249 29.3428 15.3229 29.3428C14.2223 29.3428 14.3081 29.2 14.2795 30.3852C14.2652 30.8707 14.4367 31.0421 14.9227 31.0278C16.6951 30.9993 18.4676 31.0136 20.2257 31.0136ZM46.8695 31.0136C47.9558 31.0136 49.0422 31.0136 50.1285 31.0136C51.2863 31.0136 51.1291 31.1135 51.172 29.9854C51.2006 29.457 51.0004 29.3285 50.5002 29.3285C48.2131 29.3571 45.9404 29.3285 43.6534 29.3428C42.4384 29.3428 42.5956 29.1857 42.5671 30.4281C42.5528 30.9136 42.7386 31.0421 43.1817 31.0278C44.411 30.9993 45.6402 31.0136 46.8695 31.0136Z" fill="#329CF1"/>
<path d="M20.2548 8.72266C22.1987 8.72266 24.1427 8.72266 26.0867 8.72266C27.7733 8.72266 28.8597 9.80794 28.874 11.5073C28.8883 13.378 28.8883 15.2487 28.874 17.1336C28.8597 18.7901 27.7734 19.904 26.1296 19.904C22.2416 19.9182 18.3537 19.9182 14.4657 19.904C12.7791 19.904 11.707 18.7901 11.707 17.1051C11.707 15.2487 11.707 13.3922 11.707 11.5358C11.707 9.7651 12.7648 8.72266 14.5515 8.72266C16.4383 8.72266 18.3394 8.72266 20.2548 8.72266ZM20.2834 10.4791C18.3537 10.4791 16.4383 10.4791 14.5086 10.4791C13.6653 10.4791 13.4366 10.7219 13.4366 11.5644C13.4366 13.4065 13.4366 15.2344 13.4366 17.0765C13.4366 17.9048 13.6939 18.1475 14.5372 18.1618C18.368 18.1618 22.1987 18.1618 26.0295 18.1618C26.8585 18.1618 27.1158 17.9047 27.1158 17.0622C27.1158 15.2487 27.1158 13.4208 27.1158 11.6072C27.1158 10.7076 26.8728 10.4791 25.958 10.4791C24.0569 10.4648 22.1702 10.4791 20.2834 10.4791Z" fill="#329CF1"/>
<path d="M22.8288 25.0591C19.2982 25.0591 15.7677 25.0591 12.2371 25.0591C11.2794 25.0591 10.8506 24.7878 10.8363 24.1881C10.822 23.5883 11.2651 23.3027 12.2085 23.3027C18.9123 23.3027 25.6161 23.3027 32.32 23.3027C33.1061 23.3027 33.1061 23.3027 33.1061 22.503C33.1061 17.048 33.1061 11.5788 33.1204 6.12377C33.1204 5.5954 33.049 5.29552 32.42 5.3098C31.7911 5.32408 31.4052 4.90996 31.4338 4.42443C31.4623 3.91035 31.834 3.61047 32.4772 3.59619C32.9346 3.59619 33.4063 3.58191 33.8637 3.59619C34.5212 3.61047 34.8357 3.92463 34.8643 4.5958C34.8643 4.7386 34.8643 4.8814 34.8643 5.0242C34.8643 11.236 34.8643 17.4479 34.8643 23.6454C34.8643 24.8449 34.6499 25.0734 33.4206 25.0734C29.89 25.0591 26.3594 25.0591 22.8288 25.0591Z" fill="#329CF1"/>
<path d="M17.7086 3.58169C21.2535 3.58169 24.7984 3.58169 28.3433 3.58169C28.5434 3.58169 28.7435 3.56742 28.9293 3.59598C29.3724 3.66738 29.644 3.9387 29.6726 4.38138C29.7012 4.82406 29.4582 5.12394 29.0294 5.25247C28.7292 5.33815 28.4291 5.32387 28.1289 5.32387C21.5108 5.32387 14.907 5.32387 8.28898 5.32387C7.41705 5.32387 7.41706 5.32386 7.41706 6.22351C7.41706 11.6499 7.41706 17.0764 7.41706 22.4885C7.41706 23.2454 7.41705 23.2454 8.14604 23.3025C8.74638 23.3596 9.07514 23.688 9.06085 24.2021C9.04656 24.6877 8.71779 25.0161 8.14604 25.0447C7.70293 25.0732 7.25982 25.0589 6.81671 25.0447C5.98767 25.0304 5.6875 24.7448 5.6875 23.9165C5.6875 21.189 5.6875 18.4615 5.6875 15.734C5.6875 12.0783 5.6875 8.42264 5.6875 4.76694C5.6875 3.83874 5.94478 3.58169 6.85959 3.58169C10.4759 3.58169 14.0923 3.58169 17.7086 3.58169Z" fill="#329CF1"/>
<path d="M20.2858 36.1969C15.3116 36.1969 10.3373 36.1969 5.36302 36.1969C5.1629 36.1969 4.96279 36.2112 4.77697 36.1826C4.33386 36.1255 4.04798 35.8827 4.0051 35.4258C3.96222 34.9545 4.19092 34.6261 4.64832 34.5118C4.86273 34.4547 5.10573 34.4404 5.33444 34.4404C15.2973 34.4404 25.2744 34.4404 35.2372 34.4404C35.4659 34.4404 35.7089 34.4547 35.9233 34.5118C36.3521 34.6261 36.5951 34.9402 36.5522 35.3829C36.5094 35.8256 36.2378 36.0969 35.7947 36.1683C35.6089 36.1969 35.4087 36.1826 35.2086 36.1826C30.2344 36.1969 25.2601 36.1969 20.2858 36.1969Z" fill="#329CF1"/>
<path d="M20.2858 16.4766C18.985 16.4766 17.6843 16.4766 16.3835 16.4766C16.1548 16.4766 15.9261 16.4766 15.6974 16.3909C15.3258 16.2481 15.1114 15.9768 15.1257 15.5769C15.14 15.1771 15.3544 14.9057 15.7403 14.7915C15.9261 14.7344 16.1262 14.7344 16.3264 14.7344C18.9564 14.7344 21.6008 14.7344 24.2309 14.7344C24.3595 14.7344 24.4881 14.7344 24.6025 14.7487C25.0742 14.8058 25.3601 15.0914 25.3887 15.5483C25.4315 16.0196 25.1457 16.3195 24.7026 16.4337C24.5167 16.4766 24.3166 16.4908 24.1165 16.4908C22.8444 16.4766 21.5579 16.4766 20.2858 16.4766Z" fill="#329CF1"/>
</svg>
